<svg width="652" height="90" viewBox="0 0 652 90" fill="none" xmlns="http://www.w3.org/2000/svg">
<path d="M97.4078 0.65625V90.0001H79.4878V31.8882L55.5519 90.0001H41.9839L17.92 31.8882V90.0001H0V0.65625H20.352L48.7679 67.0881L77.1838 0.65625H97.4078Z" fill="#DFFE02"/>
<path fill-rule="evenodd" clip-rule="evenodd" d="M152.91 89.9998C177.763 89.9998 197.91 69.8527 197.91 44.9999C197.91 20.1471 177.763 0 152.91 0C128.057 0 107.91 20.1471 107.91 44.9999C107.91 69.8527 128.057 89.9998 152.91 89.9998ZM152.809 72.2609C167.89 72.2609 180.115 60.0356 180.115 44.9549C180.115 29.8742 167.89 17.6488 152.809 17.6488C137.728 17.6488 125.503 29.8742 125.503 44.9549C125.503 60.0356 137.728 72.2609 152.809 72.2609Z" fill="#DFFE02"/>
<ellipse cx="152.809" cy="45.1599" rx="21.0047" ry="21.0047" fill="#DFFE02"/>
<path d="M239.644 0.65625C249.031 0.65625 257.265 2.49091 264.348 6.16024C271.516 9.82956 277.02 15.0775 280.86 21.9042C284.785 28.6455 286.748 36.4962 286.748 45.4562C286.748 54.4161 284.785 62.2668 280.86 69.0081C277.02 75.6641 271.516 80.8268 264.348 84.4961C257.265 88.1654 249.031 90.0001 239.644 90.0001H208.412V0.65625H239.644ZM239.004 74.7681C248.391 74.7681 255.644 72.2081 260.764 67.0881C265.884 61.9681 268.444 54.7575 268.444 45.4562C268.444 36.1548 265.884 28.9015 260.764 23.6962C255.644 18.4055 248.391 15.7602 239.004 15.7602H226.332V74.7681H239.004Z" fill="#DFFE02"/>
<path d="M315.17 15.1203V37.5202H345.25V51.7282H315.17V75.4082H349.09V90.0001H297.25V0.52832H349.09V15.1203H315.17Z" fill="#DFFE02"/>
<path d="M457.001 0.65625V90.0001H439.081V31.8882L415.145 90.0001H401.577L377.513 31.8882V90.0001H359.593V0.65625H379.945L408.361 67.0881L436.777 0.65625H457.001Z" fill="#DFFE02"/>
<path d="M540.502 0H562.502V89.9998H540.502V61.4999L546.334 44.4999L540.502 22.5V0Z" fill="#DFFE02"/>
<path fill-rule="evenodd" clip-rule="evenodd" d="M512.503 89.9998C537.356 89.9998 557.503 69.8527 557.503 44.9999C557.503 20.1471 537.356 0 512.503 0C487.65 0 467.503 20.1471 467.503 44.9999C467.503 69.8527 487.65 89.9998 512.503 89.9998ZM515.503 72.9985C530.967 72.9985 543.503 60.4625 543.503 44.9985C543.503 29.5346 530.967 16.9986 515.503 16.9986C500.039 16.9986 487.503 29.5346 487.503 44.9985C487.503 60.4625 500.039 72.9985 515.503 72.9985Z" fill="#DFFE02"/>
<ellipse cx="515.502" cy="45" rx="21" ry="21" fill="#DFFE02"/>
<path d="M630.476 90.0001L611.148 59.9201L593.612 90.0001H573.388L601.548 44.9442L573.004 0.65625H593.612L612.94 30.6082L630.348 0.65625H650.572L622.54 45.5842L651.084 90.0001H630.476Z" fill="#DFFE02"/>
</svg>
