<svg xmlns="http://www.w3.org/2000/svg" xmlns:xlink="http://www.w3.org/1999/xlink" fill="none" version="1.1" width="435" height="31" viewBox="0 0 435 31"><defs><linearGradient x1="1" y1="0.5" x2="0.3680039644241333" y2="0.5" id="master_svg0_552_6428"><stop offset="0%" stop-color="#FFFFFF" stop-opacity="0.5"/><stop offset="100%" stop-color="#5C7CFF" stop-opacity="0"/></linearGradient><linearGradient x1="1" y1="0.5" x2="0" y2="0.5" id="master_svg1_552_6660"><stop offset="0%" stop-color="#FFFFFF" stop-opacity="0.4000000059604645"/><stop offset="100%" stop-color="#FFFFFF" stop-opacity="0.20000000298023224"/></linearGradient><clipPath id="master_svg2_654_2535"><rect x="14.5" y="6.5" width="17" height="18" rx="0"/></clipPath><linearGradient x1="1" y1="0.5" x2="0" y2="0.5" id="master_svg3_654_3499"><stop offset="0%" stop-color="#BCBF19" stop-opacity="0.4000000059604645"/><stop offset="100%" stop-color="#5C7CFF" stop-opacity="0"/></linearGradient><linearGradient x1="1" y1="0.5" x2="0" y2="0.5" id="master_svg4_654_3669"><stop offset="0%" stop-color="#A8A609" stop-opacity="1"/><stop offset="100%" stop-color="#5C7CFF" stop-opacity="0"/></linearGradient></defs><g><g><rect x="1.5" y="1.5" width="433" height="29" rx="14.5" stroke="url(#master_svg0_552_6428)" fill-opacity="0" fill="none" stroke-width="1"/></g><g><path d="M1,16C1,24.2843,7.71573,31,16,31L219.302,31L232.297,16L219.302,1L16,1C7.71573,1,1,7.71573,1,16ZM16,30L218.846,30L230.973,16L218.846,2L16,2Q10.20101,2,6.10051,6.10051Q2,10.20101,2,16Q2,21.799,6.10051,25.8995Q10.20101,30,16,30Z" fill-rule="evenodd" fill="url(#master_svg1_552_6660)" fill-opacity="1"/></g><g><path d="M45.602000000000004,13.097999999999999Q45.602000000000004,14.316,44.769,15.121Q43.936,15.926,42.228,15.926L40.352,15.926L40.352,20L39.078,20L39.078,10.242L42.228,10.242Q43.88,10.242,44.741,11.04Q45.602000000000004,11.838000000000001,45.602000000000004,13.097999999999999ZM42.228,14.876Q43.292,14.876,43.796,14.414Q44.3,13.952,44.3,13.097999999999999Q44.3,11.292,42.228,11.292L40.352,11.292L40.352,14.876L42.228,14.876ZM50.992000000000004,12.187999999999999Q51.86,12.187999999999999,52.56,12.559000000000001Q53.26,12.93,53.659,13.672Q54.058,14.414,54.058,15.478L54.058,20L52.798,20L52.798,15.66Q52.798,14.512,52.224000000000004,13.902999999999999Q51.65,13.294,50.656,13.294Q49.647999999999996,13.294,49.053,13.924Q48.458,14.554,48.458,15.758L48.458,20L47.184,20L47.184,9.64L48.458,9.64L48.458,13.42Q48.836,12.832,49.501,12.51Q50.166,12.187999999999999,50.992000000000004,12.187999999999999ZM55.668,16.136Q55.668,14.96,56.144,14.071Q56.620000000000005,13.182,57.453,12.692Q58.286,12.202,59.308,12.202Q60.316,12.202,61.058,12.636Q61.8,13.07,62.164,13.728L62.164,12.328L63.452,12.328L63.452,20L62.164,20L62.164,18.572Q61.786,19.244,61.037,19.685000000000002Q60.288,20.125999999999998,59.294,20.125999999999998Q58.272,20.125999999999998,57.446,19.622Q56.620000000000005,19.118000000000002,56.144,18.208Q55.668,17.298000000000002,55.668,16.136ZM62.164,16.15Q62.164,15.282,61.814,14.638Q61.464,13.994,60.869,13.651Q60.274,13.308,59.56,13.308Q58.846000000000004,13.308,58.257999999999996,13.644Q57.67,13.98,57.32,14.624Q56.97,15.268,56.97,16.136Q56.97,17.018,57.32,17.669Q57.67,18.32,58.257999999999996,18.663Q58.846000000000004,19.006,59.56,19.006Q60.274,19.006,60.869,18.663Q61.464,18.32,61.814,17.669Q62.164,17.018,62.164,16.15ZM68.3034,20.125999999999998Q67.41929999999999,20.125999999999998,66.7175,19.825Q66.01599999999999,19.524,65.6089,18.985Q65.202,18.445999999999998,65.202,17.746000000000002L66.504,17.746000000000002Q66.56,18.32,67.043,18.683999999999997Q67.526,19.048000000000002,68.31,19.048000000000002Q69.038,19.048000000000002,69.458,18.726Q69.878,18.404,69.878,17.914Q69.878,17.41,69.43,17.165Q68.982,16.92,68.044,16.682000000000002Q67.19,16.458,66.651,16.227Q66.112,15.996,65.727,15.541Q65.342,15.086,65.342,14.344Q65.342,13.756,65.69200000000001,13.266Q66.042,12.776,66.686,12.489Q67.33,12.202,68.156,12.202Q69.43,12.202,70.214,12.846Q70.99799999999999,13.49,71.054,14.61L69.752,14.61Q69.752,14.008,69.309,13.644Q68.8661,13.280000000000001,68.1208,13.280000000000001Q67.4317,13.280000000000001,67.0238,13.574Q66.616,13.868,66.616,14.344Q66.616,14.722,66.861,14.967Q67.106,15.212,67.477,15.359Q67.848,15.506,68.506,15.688Q69.332,15.912,69.85,16.128999999999998Q70.368,16.346,70.739,16.78Q71.11,17.214,71.11,17.914Q71.11,18.544,70.75909999999999,19.048000000000002Q70.4085,19.552,69.7699,19.839Q69.1314,20.125999999999998,68.3034,20.125999999999998ZM79.916,15.87Q79.916,16.234,79.874,16.64L73.74199999999999,16.64Q73.812,17.774,74.519,18.411Q75.226,19.048000000000002,76.23400000000001,19.048000000000002Q77.06,19.048000000000002,77.613,18.663Q78.166,18.278,78.39,17.634L79.762,17.634Q79.45400000000001,18.740000000000002,78.53,19.433Q77.606,20.125999999999998,76.23400000000001,20.125999999999998Q75.142,20.125999999999998,74.281,19.636Q73.42,19.146,72.93,18.243000000000002Q72.44,17.34,72.44,16.15Q72.44,14.96,72.916,14.064Q73.392,13.168,74.253,12.684999999999999Q75.114,12.202,76.23400000000001,12.202Q77.326,12.202,78.166,12.678Q79.006,13.154,79.461,13.987Q79.916,14.82,79.916,15.87ZM78.6,15.604Q78.6,14.876,78.27799999999999,14.351Q77.956,13.826,77.40299999999999,13.553Q76.85,13.280000000000001,76.178,13.280000000000001Q75.212,13.280000000000001,74.533,13.896Q73.854,14.512,73.756,15.604L78.6,15.604ZM86.916,14.33L86.916,15.408L81.33,15.408L81.33,14.33L86.916,14.33ZM88.76400000000001,11.04L88.76400000000001,9.878L91.396,9.878L91.396,20L90.108,20L90.108,11.04L88.76400000000001,11.04ZM101.336,12.187999999999999Q102.204,12.187999999999999,102.904,12.559000000000001Q103.604,12.93,104.003,13.672Q104.402,14.414,104.402,15.478L104.402,20L103.142,20L103.142,15.66Q103.142,14.512,102.568,13.902999999999999Q101.994,13.294,101,13.294Q99.99199999999999,13.294,99.39699999999999,13.924Q98.80199999999999,14.554,98.80199999999999,15.758L98.80199999999999,20L97.52799999999999,20L97.52799999999999,9.64L98.80199999999999,9.64L98.80199999999999,13.42Q99.18,12.832,99.845,12.51Q100.50999999999999,12.187999999999999,101.336,12.187999999999999ZM106.012,16.136Q106.012,14.96,106.488,14.071Q106.964,13.182,107.797,12.692Q108.63,12.202,109.652,12.202Q110.66,12.202,111.402,12.636Q112.144,13.07,112.508,13.728L112.508,12.328L113.796,12.328L113.796,20L112.508,20L112.508,18.572Q112.13,19.244,111.381,19.685000000000002Q110.632,20.125999999999998,109.638,20.125999999999998Q108.616,20.125999999999998,107.79,19.622Q106.964,19.118000000000002,106.488,18.208Q106.012,17.298000000000002,106.012,16.136ZM112.508,16.15Q112.508,15.282,112.158,14.638Q111.808,13.994,111.213,13.651Q110.618,13.308,109.904,13.308Q109.19,13.308,108.602,13.644Q108.014,13.98,107.664,14.624Q107.314,15.268,107.314,16.136Q107.314,17.018,107.664,17.669Q108.014,18.32,108.602,18.663Q109.19,19.006,109.904,19.006Q110.618,19.006,111.213,18.663Q111.808,18.32,112.158,17.669Q112.508,17.018,112.508,16.15ZM118.6474,20.125999999999998Q117.7633,20.125999999999998,117.0615,19.825Q116.36,19.524,115.9529,18.985Q115.546,18.445999999999998,115.546,17.746000000000002L116.848,17.746000000000002Q116.904,18.32,117.387,18.683999999999997Q117.87,19.048000000000002,118.654,19.048000000000002Q119.382,19.048000000000002,119.802,18.726Q120.222,18.404,120.222,17.914Q120.222,17.41,119.774,17.165Q119.326,16.92,118.388,16.682000000000002Q117.534,16.458,116.995,16.227Q116.456,15.996,116.071,15.541Q115.686,15.086,115.686,14.344Q115.686,13.756,116.036,13.266Q116.386,12.776,117.03,12.489Q117.674,12.202,118.5,12.202Q119.774,12.202,120.558,12.846Q121.342,13.49,121.398,14.61L120.096,14.61Q120.096,14.008,119.653,13.644Q119.2101,13.280000000000001,118.4648,13.280000000000001Q117.7757,13.280000000000001,117.3678,13.574Q116.96,13.868,116.96,14.344Q116.96,14.722,117.205,14.967Q117.45,15.212,117.821,15.359Q118.192,15.506,118.85,15.688Q119.676,15.912,120.194,16.128999999999998Q120.712,16.346,121.083,16.78Q121.454,17.214,121.454,17.914Q121.454,18.544,121.1031,19.048000000000002Q120.7525,19.552,120.1139,19.839Q119.4754,20.125999999999998,118.6474,20.125999999999998ZM133.998,15.87Q133.998,16.234,133.95600000000002,16.64L127.824,16.64Q127.894,17.774,128.601,18.411Q129.308,19.048000000000002,130.316,19.048000000000002Q131.142,19.048000000000002,131.695,18.663Q132.248,18.278,132.47199999999998,17.634L133.844,17.634Q133.536,18.740000000000002,132.612,19.433Q131.688,20.125999999999998,130.316,20.125999999999998Q129.224,20.125999999999998,128.363,19.636Q127.502,19.146,127.012,18.243000000000002Q126.522,17.34,126.522,16.15Q126.522,14.96,126.998,14.064Q127.474,13.168,128.33499999999998,12.684999999999999Q129.196,12.202,130.316,12.202Q131.40800000000002,12.202,132.248,12.678Q133.088,13.154,133.543,13.987Q133.998,14.82,133.998,15.87ZM132.68200000000002,15.604Q132.68200000000002,14.876,132.36,14.351Q132.038,13.826,131.485,13.553Q130.93200000000002,13.280000000000001,130.26,13.280000000000001Q129.29399999999998,13.280000000000001,128.615,13.896Q127.936,14.512,127.838,15.604L132.68200000000002,15.604ZM139.416,12.187999999999999Q140.816,12.187999999999999,141.684,13.035Q142.55200000000002,13.882,142.55200000000002,15.478L142.55200000000002,20L141.292,20L141.292,15.66Q141.292,14.512,140.71800000000002,13.902999999999999Q140.144,13.294,139.15,13.294Q138.142,13.294,137.547,13.924Q136.952,14.554,136.952,15.758L136.952,20L135.678,20L135.678,12.328L136.952,12.328L136.952,13.42Q137.32999999999998,12.832,137.981,12.51Q138.632,12.187999999999999,139.416,12.187999999999999ZM144.162,16.136Q144.162,14.96,144.638,14.071Q145.114,13.182,145.947,12.692Q146.78,12.202,147.816,12.202Q148.712,12.202,149.482,12.615Q150.252,13.027999999999999,150.65800000000002,13.7L150.65800000000002,9.64L151.946,9.64L151.946,20L150.65800000000002,20L150.65800000000002,18.558Q150.28,19.244,149.538,19.685000000000002Q148.796,20.125999999999998,147.80200000000002,20.125999999999998Q146.78,20.125999999999998,145.947,19.622Q145.114,19.118000000000002,144.638,18.208Q144.162,17.298000000000002,144.162,16.136ZM150.65800000000002,16.15Q150.65800000000002,15.282,150.308,14.638Q149.958,13.994,149.363,13.651Q148.768,13.308,148.054,13.308Q147.34,13.308,146.752,13.644Q146.164,13.98,145.814,14.624Q145.464,15.268,145.464,16.136Q145.464,17.018,145.814,17.669Q146.164,18.32,146.752,18.663Q147.34,19.006,148.054,19.006Q148.768,19.006,149.363,18.663Q149.958,18.32,150.308,17.669Q150.65800000000002,17.018,150.65800000000002,16.15ZM161.102,15.87Q161.102,16.234,161.06,16.64L154.928,16.64Q154.998,17.774,155.70499999999998,18.411Q156.412,19.048000000000002,157.42000000000002,19.048000000000002Q158.24599999999998,19.048000000000002,158.799,18.663Q159.352,18.278,159.576,17.634L160.94799999999998,17.634Q160.64,18.740000000000002,159.716,19.433Q158.792,20.125999999999998,157.42000000000002,20.125999999999998Q156.328,20.125999999999998,155.46699999999998,19.636Q154.606,19.146,154.11599999999999,18.243000000000002Q153.626,17.34,153.626,16.15Q153.626,14.96,154.102,14.064Q154.578,13.168,155.439,12.684999999999999Q156.3,12.202,157.42000000000002,12.202Q158.512,12.202,159.352,12.678Q160.192,13.154,160.647,13.987Q161.102,14.82,161.102,15.87ZM159.786,15.604Q159.786,14.876,159.464,14.351Q159.142,13.826,158.589,13.553Q158.036,13.280000000000001,157.364,13.280000000000001Q156.398,13.280000000000001,155.719,13.896Q155.04000000000002,14.512,154.942,15.604L159.786,15.604ZM162.30599999999998,16.136Q162.30599999999998,14.96,162.78199999999998,14.071Q163.25799999999998,13.182,164.091,12.692Q164.924,12.202,165.95999999999998,12.202Q166.856,12.202,167.626,12.615Q168.396,13.027999999999999,168.802,13.7L168.802,9.64L170.09,9.64L170.09,20L168.802,20L168.802,18.558Q168.424,19.244,167.682,19.685000000000002Q166.94,20.125999999999998,165.946,20.125999999999998Q164.924,20.125999999999998,164.091,19.622Q163.25799999999998,19.118000000000002,162.78199999999998,18.208Q162.30599999999998,17.298000000000002,162.30599999999998,16.136ZM168.802,16.15Q168.802,15.282,168.452,14.638Q168.102,13.994,167.507,13.651Q166.912,13.308,166.198,13.308Q165.48399999999998,13.308,164.89600000000002,13.644Q164.308,13.98,163.958,14.624Q163.608,15.268,163.608,16.136Q163.608,17.018,163.958,17.669Q164.308,18.32,164.89600000000002,18.663Q165.48399999999998,19.006,166.198,19.006Q166.912,19.006,167.507,18.663Q168.102,18.32,168.452,17.669Q168.802,17.018,168.802,16.15Z" fill="#E5FD52" fill-opacity="0.6000000238418579"/></g><g><path d="M262.602,13.098Q262.602,14.316,261.769,15.121Q260.936,15.926,259.228,15.926L257.352,15.926L257.352,20L256.078,20L256.078,10.242L259.228,10.242Q260.88,10.242,261.741,11.04Q262.602,11.838,262.602,13.098ZM259.228,14.876Q260.292,14.876,260.796,14.414Q261.3,13.952,261.3,13.098Q261.3,11.292,259.228,11.292L257.352,11.292L257.352,14.876L259.228,14.876ZM267.992,12.188Q268.86,12.188,269.56,12.559Q270.26,12.93,270.659,13.672Q271.058,14.414,271.058,15.478L271.058,20L269.798,20L269.798,15.66Q269.798,14.512,269.224,13.903Q268.65,13.294,267.656,13.294Q266.648,13.294,266.053,13.924Q265.458,14.554,265.458,15.758L265.458,20L264.184,20L264.184,9.64L265.458,9.64L265.458,13.42Q265.836,12.832,266.501,12.51Q267.166,12.188,267.992,12.188ZM272.668,16.136Q272.668,14.96,273.144,14.071Q273.62,13.182,274.453,12.692Q275.286,12.202,276.308,12.202Q277.316,12.202,278.058,12.636Q278.8,13.07,279.164,13.728L279.164,12.328L280.452,12.328L280.452,20L279.164,20L279.164,18.572Q278.786,19.244,278.037,19.685Q277.288,20.126,276.294,20.126Q275.272,20.126,274.446,19.622Q273.62,19.118,273.144,18.208Q272.668,17.298,272.668,16.136ZM279.164,16.15Q279.164,15.282,278.814,14.638Q278.464,13.994,277.869,13.651Q277.274,13.308,276.56,13.308Q275.846,13.308,275.258,13.644Q274.67,13.98,274.32,14.624Q273.97,15.268,273.97,16.136Q273.97,17.018,274.32,17.669Q274.67,18.32,275.258,18.663Q275.846,19.006,276.56,19.006Q277.274,19.006,277.869,18.663Q278.464,18.32,278.814,17.669Q279.164,17.018,279.164,16.15ZM285.3034,20.126Q284.4193,20.126,283.7175,19.825Q283.016,19.524,282.6089,18.985Q282.202,18.446,282.202,17.746L283.504,17.746Q283.56,18.32,284.043,18.684Q284.526,19.048,285.31,19.048Q286.038,19.048,286.45799999999997,18.726Q286.878,18.404,286.878,17.914Q286.878,17.41,286.43,17.165Q285.98199999999997,16.92,285.044,16.682Q284.19,16.458,283.651,16.227Q283.112,15.996,282.727,15.541Q282.342,15.086,282.342,14.344Q282.342,13.756,282.692,13.266Q283.04200000000003,12.776,283.686,12.489Q284.33,12.202,285.156,12.202Q286.43,12.202,287.214,12.846Q287.998,13.49,288.054,14.61L286.752,14.61Q286.752,14.008,286.309,13.644Q285.8661,13.28,285.1208,13.28Q284.4317,13.28,284.0238,13.574Q283.616,13.868,283.616,14.344Q283.616,14.722,283.861,14.967Q284.106,15.212,284.477,15.359Q284.848,15.506,285.506,15.688Q286.332,15.912,286.85,16.129Q287.368,16.346,287.739,16.78Q288.11,17.214,288.11,17.914Q288.11,18.544,287.7591,19.048Q287.4085,19.552,286.7699,19.839Q286.1314,20.126,285.3034,20.126ZM296.916,15.87Q296.916,16.234,296.874,16.64L290.742,16.64Q290.812,17.774,291.519,18.411Q292.226,19.048,293.234,19.048Q294.06,19.048,294.613,18.663Q295.166,18.278,295.39,17.634L296.762,17.634Q296.454,18.74,295.53,19.433Q294.606,20.126,293.234,20.126Q292.142,20.126,291.281,19.636Q290.42,19.146,289.93,18.243Q289.44,17.34,289.44,16.15Q289.44,14.96,289.916,14.064Q290.392,13.168,291.253,12.685Q292.114,12.202,293.234,12.202Q294.326,12.202,295.166,12.678Q296.006,13.154,296.461,13.987Q296.916,14.82,296.916,15.87ZM295.6,15.604Q295.6,14.876,295.278,14.351Q294.956,13.826,294.403,13.553Q293.85,13.28,293.178,13.28Q292.212,13.28,291.533,13.896Q290.854,14.512,290.756,15.604L295.6,15.604ZM303.916,14.33L303.916,15.408L298.33,15.408L298.33,14.33L303.916,14.33ZM305.946,18.978Q307.724,17.55,308.73199999999997,16.633Q309.74,15.716,310.433,14.715Q311.126,13.714,311.126,12.748Q311.126,11.838,310.6817,11.313Q310.2377,10.788,309.2504,10.788Q308.2917,10.788,307.7627,11.383Q307.234,11.978,307.234,12.972L305.988,12.972Q306.044,11.404,306.94,10.55Q307.836,9.696,309.25,9.696Q310.692,9.696,311.539,10.494Q312.386,11.292,312.386,12.692Q312.386,13.854,311.693,14.953Q311,16.052,310.118,16.885Q309.236,17.718,307.864,18.824L312.68,18.824L312.68,19.888L305.946,19.888L305.946,18.978ZM318.756,11.082Q318.392,11.082,318.14,10.83Q317.888,10.578,317.888,10.214Q317.888,9.85,318.14,9.598Q318.392,9.346,318.756,9.346Q319.106,9.346,319.351,9.598Q319.596,9.85,319.596,10.214Q319.596,10.578,319.351,10.83Q319.106,11.082,318.756,11.082ZM319.372,12.328L319.372,20L318.098,20L318.098,12.328L319.372,12.328ZM324.2374,20.126Q323.3532,20.126,322.6515,19.825Q321.95,19.524,321.54290000000003,18.985Q321.13599999999997,18.446,321.13599999999997,17.746L322.438,17.746Q322.494,18.32,322.977,18.684Q323.46,19.048,324.244,19.048Q324.972,19.048,325.392,18.726Q325.812,18.404,325.812,17.914Q325.812,17.41,325.36400000000003,17.165Q324.916,16.92,323.978,16.682Q323.124,16.458,322.585,16.227Q322.046,15.996,321.661,15.541Q321.276,15.086,321.276,14.344Q321.276,13.756,321.626,13.266Q321.976,12.776,322.62,12.489Q323.264,12.202,324.09000000000003,12.202Q325.36400000000003,12.202,326.148,12.846Q326.932,13.49,326.988,14.61L325.68600000000004,14.61Q325.68600000000004,14.008,325.243,13.644Q324.8001,13.28,324.0548,13.28Q323.3657,13.28,322.9577,13.574Q322.55,13.868,322.55,14.344Q322.55,14.722,322.795,14.967Q323.04,15.212,323.411,15.359Q323.782,15.506,324.44,15.688Q325.266,15.912,325.784,16.129Q326.302,16.346,326.673,16.78Q327.044,17.214,327.044,17.914Q327.044,18.544,326.6931,19.048Q326.3425,19.552,325.7039,19.839Q325.0654,20.126,324.2374,20.126ZM332.11199999999997,16.15Q332.11199999999997,14.96,332.58799999999997,14.071Q333.06399999999996,13.182,333.911,12.692Q334.758,12.202,335.85,12.202Q337.264,12.202,338.181,12.888Q339.098,13.574,339.392,14.792L338.02,14.792Q337.824,14.092,337.257,13.686Q336.69,13.28,335.85,13.28Q334.758,13.28,334.086,14.029Q333.414,14.778,333.414,16.15Q333.414,17.536,334.086,18.292Q334.758,19.048,335.85,19.048Q336.69,19.048,337.25,18.656Q337.81,18.264,338.02,17.536L339.392,17.536Q339.084,18.712,338.15999999999997,19.419Q337.236,20.126,335.85,20.126Q334.758,20.126,333.911,19.636Q333.06399999999996,19.146,332.58799999999997,18.25Q332.11199999999997,17.354,332.11199999999997,16.15ZM344.432,20.126Q343.354,20.126,342.479,19.636Q341.604,19.146,341.10699999999997,18.243Q340.61,17.34,340.61,16.15Q340.61,14.974,341.121,14.071Q341.632,13.168,342.514,12.685Q343.396,12.202,344.488,12.202Q345.58,12.202,346.462,12.685Q347.344,13.168,347.855,14.064Q348.366,14.96,348.366,16.15Q348.366,17.34,347.841,18.243Q347.31600000000003,19.146,346.42,19.636Q345.524,20.126,344.432,20.126ZM344.432,19.006Q345.118,19.006,345.72,18.684Q346.322,18.362,346.693,17.718Q347.06399999999996,17.074,347.06399999999996,16.15Q347.06399999999996,15.226,346.7,14.582Q346.336,13.938,345.748,13.623Q345.15999999999997,13.308,344.474,13.308Q343.774,13.308,343.193,13.623Q342.61199999999997,13.938,342.262,14.582Q341.91200000000003,15.226,341.91200000000003,16.15Q341.91200000000003,17.088,342.255,17.732Q342.598,18.376,343.172,18.691Q343.746,19.006,344.432,19.006ZM359.272,12.188Q360.168,12.188,360.868,12.559Q361.568,12.93,361.974,13.672Q362.38,14.414,362.38,15.478L362.38,20L361.12,20L361.12,15.66Q361.12,14.512,360.553,13.903Q359.986,13.294,359.02,13.294Q358.026,13.294,357.438,13.931Q356.85,14.568,356.85,15.772L356.85,20L355.59000000000003,20L355.59000000000003,15.66Q355.59000000000003,14.512,355.023,13.903Q354.456,13.294,353.49,13.294Q352.496,13.294,351.908,13.931Q351.32,14.568,351.32,15.772L351.32,20L350.046,20L350.046,12.328L351.32,12.328L351.32,13.434Q351.698,12.832,352.335,12.51Q352.972,12.188,353.742,12.188Q354.70799999999997,12.188,355.45,12.622Q356.192,13.056,356.556,13.896Q356.878,13.084,357.62,12.636Q358.36199999999997,12.188,359.272,12.188ZM365.124,11.082Q364.76,11.082,364.508,10.83Q364.256,10.578,364.256,10.214Q364.256,9.85,364.508,9.598Q364.76,9.346,365.124,9.346Q365.474,9.346,365.719,9.598Q365.964,9.85,365.964,10.214Q365.964,10.578,365.719,10.83Q365.474,11.082,365.124,11.082ZM365.74,12.328L365.74,20L364.466,20L364.466,12.328L365.74,12.328ZM371.648,12.188Q373.048,12.188,373.916,13.035Q374.784,13.882,374.784,15.478L374.784,20L373.524,20L373.524,15.66Q373.524,14.512,372.95,13.903Q372.376,13.294,371.382,13.294Q370.374,13.294,369.779,13.924Q369.18399999999997,14.554,369.18399999999997,15.758L369.18399999999997,20L367.90999999999997,20L367.90999999999997,12.328L369.18399999999997,12.328L369.18399999999997,13.42Q369.562,12.832,370.21299999999997,12.51Q370.86400000000003,12.188,371.648,12.188ZM380.034,12.202Q381.028,12.202,381.777,12.636Q382.526,13.07,382.89,13.728L382.89,12.328L384.178,12.328L384.178,20.168Q384.178,21.218,383.73,22.037Q383.28200000000004,22.856,382.449,23.318Q381.616,23.78,380.51,23.78Q378.998,23.78,377.99,23.066Q376.98199999999997,22.352,376.8,21.12L378.06,21.12Q378.27,21.82,378.928,22.247Q379.586,22.674,380.51,22.674Q381.56,22.674,382.225,22.016Q382.89,21.358,382.89,20.168L382.89,18.558Q382.512,19.23,381.77,19.678Q381.028,20.126,380.034,20.126Q379.012,20.126,378.179,19.622Q377.346,19.118,376.87,18.208Q376.394,17.298,376.394,16.136Q376.394,14.96,376.87,14.071Q377.346,13.182,378.179,12.692Q379.012,12.202,380.034,12.202ZM382.89,16.15Q382.89,15.282,382.54,14.638Q382.19,13.994,381.595,13.651Q381,13.308,380.286,13.308Q379.572,13.308,378.984,13.644Q378.396,13.98,378.046,14.624Q377.696,15.268,377.696,16.136Q377.696,17.018,378.046,17.669Q378.396,18.32,378.984,18.663Q379.572,19.006,380.286,19.006Q381,19.006,381.595,18.663Q382.19,18.32,382.54,17.669Q382.89,17.018,382.89,16.15Z" fill="#FFFFFF" fill-opacity="0.5"/></g><g><g clip-path="url(#master_svg2_654_2535)"><g><path d="M23.607694375,19.7217884765625L23.593624375,19.7217884765625C22.663944375,19.6819484765625,21.773314374999998,19.5640784765625,21.018627375,19.3814584765625C20.846752275,19.3399484765625,20.740502275,19.158998476562502,20.779564825,18.976378476562502C20.818627275,18.793758476562502,20.990502375,18.6792084765625,21.160814375,18.7223784765625C21.878004375,18.8966884765625,22.728004375,19.0079184765625,23.620194375,19.0461084765625C23.795194375,19.0544084765625,23.932694375,19.2104584765625,23.924874375,19.3980584765625C23.918624375,19.5790184765625,23.778004375000002,19.7217884765625,23.607694375,19.7217884765625ZM25.256314375,19.9210184765625C25.087564375,19.9210184765625,24.948134375000002,19.781558476562502,24.938764374999998,19.6022684765625C24.927824375,19.416328476562498,25.062294375,19.255288476562498,25.238854375,19.2453284765625C27.929484375,19.0776584765625,29.362474374999998,18.2923784765625,29.362474374999998,17.7910184765625C29.362474374999998,17.6050784765625,29.504564375,17.4523584765625,29.681124375,17.4523584765625C29.856124375,17.4523584765625,29.999884375,17.6034184765625,29.999884375,17.7910184765625C29.999884375,19.0593784765625,27.627914375,19.7749284765625,25.277914375,19.9210184765625L25.256314375,19.9210184765625ZM24.257694375,18.3504984765625C23.562374375,18.3504984765625,22.879564375,18.3073384765625,22.228004375,18.2210084765625C22.053004375,18.1977684765625,21.929564374999998,18.0284284765625,21.951444375,17.8441484765625C21.973314375,17.6582184765625,22.131124375,17.5253984765625,22.306124375,17.5503084765625C23.703004375,17.7345784765625,25.281124375,17.7129984765625,26.607694375,17.4921984765625C26.779564375,17.4672984765625,26.943624375,17.5901484765625,26.971754375,17.7744284765625C26.999874375,17.9586984765625,26.879564375,18.1313584765625,26.706124375,18.1612384765625C25.942064375,18.2857584765625,25.118624375,18.3504984765625,24.257694375,18.3504984765625ZM26.764594375,18.1612584765625C26.628654375,18.1612584765625,26.808344375,17.9570584765625,26.764594375,17.8126184765625C26.738814375,17.7229784765625,26.666274375,17.5985784765625,26.764594375,17.4999984765625C26.862914375,17.4014184765625,26.764594375,17.4999984765625,27.970194375,17.1651484765625C28.996754375000002,16.8248184765625,29.360814375,16.4263784765625,29.360814375,16.1889784765625C29.360814375,15.6128984765625,27.443624375,14.7446404765625,24.438944375,14.694835476562499C24.263944375,14.6915154765625,24.123314375,14.5371204765625,24.126444375,14.3511834765625C24.129564375,14.1652454765625,24.276444375,14.0042107765625,24.449874375,14.0191521455625C27.207694375,14.0656364765625,29.998314375,14.8259884765625,29.998314375,16.1906384765625C29.998314375,16.6521584765625,29.679564374999998,17.3095784765625,28.160814375,17.8126084765625C28.129564375,17.8209084765625,26.795844375,18.1612584765625,26.764594375,18.1612584765625Z" fill="#E5FD52" fill-opacity="0.6000000238418579"/><path d="M26.569924375,17.6504084765625Q24.480784375,17.9884884765625,22.284994375,17.6988084765625Q22.220034375,17.6895684765625,22.167334375,17.7334384765625Q22.109874375,17.7812784765625,22.100394375,17.8618384765625Q22.078084375,18.0497784765625,22.247704375,18.0723084765625Q23.215234375,18.2004984765625,24.257694375,18.2004984765625Q25.474764375,18.2004984765625,26.577424375,18.0298084765625Q26.584354375,18.0036284765625,26.594554375,17.9729784765625Q26.626944375,17.8756384765625,26.620434375000002,17.8540784765625Q26.617174375,17.842748476562498,26.606514375,17.8127084765625Q26.575434375,17.7251484765625,26.569924375,17.6504084765625ZM26.728754375,18.3095384765625Q25.556064375,18.5004984765625,24.257694375,18.5004984765625Q23.195454375,18.5004984765625,22.208304375,18.3697084765625Q22.013714375,18.3438684765625,21.894874375,18.1815984765625Q21.779094375,18.0234984765625,21.802484375,17.8264684765625Q21.825914375,17.6273184765625,21.975394375,17.5028784765625Q22.130454375,17.3737984765625,22.327254375,17.4017984765625Q24.508464375,17.6895384765625,26.583064375,17.3442384765625Q26.656794375,17.3335384765625,26.724964375,17.3439484765625Q26.800864375,17.3000884765625,26.920854375,17.2744784765625Q27.330414375,17.1870884765625,27.926464375000002,17.0216084765625Q28.606394375,16.7957984765625,28.957954375,16.5203784765625Q29.210814374999998,16.3222984765625,29.210814374999998,16.1889784765625Q29.210814374999998,15.8122984765625,27.977664375,15.3863384765625Q26.509454375,14.8791754765625,24.436094375,14.8448084765625Q24.240194375,14.8410914765625,24.104944375,14.6924354765625Q23.973114375,14.5475434765625,23.976464375,14.3486624765625Q23.979824375,14.1488134765625,24.115754375,14.0063062765625Q24.260434375,13.8546244765625,24.457114375,13.8692534765625Q26.711614375,13.9078114765625,28.308024375,14.4690734765625Q30.148314374999998,15.1160784765625,30.148314374999998,16.1906384765625Q30.148314374999998,16.8650684765625,29.446874375,17.3663184765625Q29.551104375,17.3023584765625,29.681124375,17.3023584765625Q29.877304375,17.3023584765625,30.015184375,17.4483384765625Q30.149884375,17.5909684765625,30.149884375,17.7910184765625Q30.149884375,18.7847584765625,28.575994375,19.4160884765625Q27.247824375,19.9488484765625,25.287224375,20.0707284765625L25.282574375,20.0710184765625L25.256314375,20.0710184765625Q25.067424375,20.0710184765625,24.931564375,19.9347984765625Q24.798994375,19.8018784765625,24.788964375,19.6100984765625Q24.777304375,19.411908476562502,24.903584375,19.2613984765625Q25.033384375,19.1066884765625,25.230404375,19.095568476562498Q27.070864375,18.9808684765625,28.253574375,18.5041784765625Q29.212474375,18.117698476562502,29.212474375,17.7910184765625Q29.212474375,17.5919384765625,29.346164375,17.4493584765625Q29.373164375,17.4205684765625,29.402444375,17.3974084765625Q28.945294375,17.7107884765625,28.207974375,17.9549984765625L28.203694375,17.9564184765625L28.199324375,17.9575784765625Q26.867814375000002,18.3112584765625,26.764594375,18.3112584765625Q26.745794375,18.3112584765625,26.728754375,18.3095384765625ZM27.116634375,17.9302584765625Q27.455604375,17.8447084765625,28.117914374999998,17.6687984765625Q29.848314375,17.0945684765625,29.848314375,16.1906384765625Q29.848314375,15.3286084765625,28.208524375,14.7520914765625Q26.656304375,14.2063634765625,24.447354375,14.1691304765625L24.442164375,14.1690434765625L24.437004375,14.1685984765625Q24.380204374999998,14.1637054765625,24.332834375,14.2133704765625Q24.277804375,14.2710564765625,24.276414375,14.3537044765625Q24.273264375,14.5416654765625,24.441784375,14.5448624765625Q26.562234375,14.5800094765625,28.075614375,15.1027784765625Q29.510814375000002,15.5985384765625,29.510814375000002,16.1889784765625Q29.510814375000002,16.8124184765625,28.017394375000002,17.3075284765625L28.013884375,17.3086884765625L28.010334375,17.3096784765625Q27.447854375,17.4659084765625,27.046274375,17.5542584765625Q27.103064375,17.6405884765625,27.120034375,17.7517984765625Q27.134234375,17.8448584765625,27.116634375,17.9302584765625ZM25.273244375,19.7710184765625Q27.182544375,19.6517984765625,28.464304375,19.1376484765625Q29.849884375000002,18.581858476562502,29.849884375000002,17.7910184765625Q29.849884375000002,17.6023584765625,29.681124375,17.6023584765625Q29.512474375,17.6023584765625,29.512474375,17.7910184765625Q29.512474375,18.3202384765625,28.365724375,18.7824284765625Q27.137974375,19.2772684765625,25.247304375,19.3950884765625Q25.179824375,19.3988984765625,25.133414375,19.4542184765625Q25.083794375,19.5133584765625,25.088564375,19.5944284765625Q25.097794375,19.7710184765625,25.256314375,19.7710184765625L25.273244375,19.7710184765625ZM24.074754375,19.404298476562502L24.074784375,19.4032384765625Q24.082734375,19.2039884765625,23.954234375,19.0563584765625Q23.822964375,18.9055584765625,23.626604375,18.8962384765625Q22.272904375,18.8383084765625,21.197666375,18.5769684765625Q21.005356375,18.5282284765625,20.837796475,18.6398784765625Q20.674938075,18.7483984765625,20.632883375,18.9449984765625Q20.591333375,19.1392484765625,20.690760875,19.3079884765625Q20.792854775,19.4812484765625,20.983348375,19.527248476562498Q22.152524375,19.8101684765625,23.587204375,19.8716484765625L23.590414375,19.8717884765625L23.607694375,19.8717884765625Q23.798514375,19.8717884765625,23.934864375,19.732848476562502Q24.067724375,19.5974584765625,24.074754375,19.404298476562502ZM23.613774375,19.1959684765625Q23.782834375,19.2039884765625,23.775004375,19.3918184765625L23.774964375,19.3928784765625Q23.768784375,19.5717884765625,23.607694375,19.5717884765625L23.596844375,19.5717884765625Q22.193314375,19.5113784765625,21.053905375,19.235668476562502Q20.886160375,19.1951584765625,20.926246375,19.0077584765625Q20.942789375,18.9304184765625,21.004145375,18.8895384765625Q21.060819375,18.8517784765625,21.123963375,18.8677784765625Q22.230664375,19.1367784765625,23.613774375,19.1959684765625Z" fill-rule="evenodd" fill="#E5FD52" fill-opacity="0.6000000238418579"/></g><g><path d="M17.9920445625,21.564532910156252C17.7779815625,21.564532910156252,17.5842315625,21.50153291015625,17.4232945625,21.35203291015625C17.2904818625,21.22923291015625,17.2764193625,21.01673291015625,17.3904818625,20.87563291015625C17.5061065625,20.73453291015625,17.7061065625,20.71953291015625,17.8389195625,20.840732910156248C18.0139195625,21.00173291015625,18.770166562500002,20.80093291015625,20.060796562500002,19.58732291015625C20.8139165625,18.883412910156252,21.6045465625,17.97199291015625,22.3482965625,16.95265291015625C24.498296562500002,13.99923291015625,25.2592365625,11.55548691015625,24.8389165625,11.17033091015625C24.7061065625,11.04913991015625,24.6904865625,10.83497891015625,24.8045465625,10.69386591015625C24.9201665625,10.55275271015625,25.1201665625,10.53615111015625,25.2529865625,10.65734261015625C26.229546562499998,11.55050691015625,24.7842365625,14.70812291015625,22.8498565625,17.36603291015625C22.0811065625,18.42023291015625,21.2623565625,19.36320291015625,20.4795465625,20.09367291015625C19.8389165625,20.69963291015625,18.7811065625,21.564532910156252,17.9920445625,21.564532910156252Z" fill="#E5FD52" fill-opacity="0.6000000238418579"/><path d="M20.5818865625,20.203342910156252L20.5826165625,20.20264291015625Q21.785836562500002,19.079732910156253,22.9711365625,17.45430291015625Q24.5484465625,15.28701291015625,25.2827665625,13.40441291015625Q26.1231465625,11.24991891015625,25.3540865625,10.54653951015625Q25.2062865625,10.41166591015625,25.0100665625,10.42774091015625Q24.8156265625,10.44367091015625,24.6878865625,10.59957221015625Q24.5651365625,10.75142991015625,24.5795465625,10.95040091015625Q24.5939865625,11.14989491015625,24.7375765625,11.28092091015625Q25.0143365625,11.53452891015625,24.4179765625,13.04325291015625Q23.7161665625,14.81876291015625,22.2271165625,16.86424291015625Q21.0960765625,18.41438291015625,19.9580365625,19.478042910156248Q19.0997765625,20.285072910156252,18.4656765625,20.59473291015625Q18.0262695625,20.80933291015625,17.9400265625,20.72993291015625Q17.7923935625,20.59523291015625,17.5967685625,20.61023291015625Q17.4017105625,20.62523291015625,17.2738256625,20.78133291015625Q17.1511955625,20.93303291015625,17.1646555625,21.13083291015625Q17.1781815625,21.32963291015625,17.3212368625,21.46203291015625Q17.5932855625,21.71453291015625,17.9920445625,21.71453291015625Q18.9839665625,21.71453291015625,20.5818865625,20.203342910156252ZM22.7285765625,17.27777291015625Q21.5599165625,18.88038291015625,20.3772065625,19.98400291015625L20.3764665625,19.984692910156248Q18.8647865625,21.41453291015625,17.9920445625,21.41453291015625Q17.7110775625,21.41453291015625,17.5253515625,21.24213291015625Q17.3890181625,21.11603291015625,17.5071385625,20.969932910156253Q17.5525075625,20.91453291015625,17.6197425625,20.90933291015625Q17.6860135625,20.90423291015625,17.7378125625,20.95153291015625Q17.9738535625,21.16873291015625,18.5973165625,20.86433291015625Q19.2722065625,20.53473291015625,20.1635465625,19.69660291015625Q21.321676562500002,18.61415291015625,22.4694665625,17.04107291015625Q23.981136562499998,14.96450291015625,24.696976562499998,13.153532910156251Q25.3692265625,11.45281991015625,24.9402565625,11.05973991015625Q24.8029565625,10.93444891015625,24.9211965625,10.78815991015625Q24.9669965625,10.73227491015625,25.0345665625,10.72673891015625Q25.1005765625,10.72133091015625,25.1518765625,10.76814591015625Q25.7689265625,11.332497910156249,25.003276562499998,13.29540291015625Q24.2830565625,15.14184291015625,22.7285765625,17.27777291015625Z" fill-rule="evenodd" fill="#E5FD52" fill-opacity="0.6000000238418579"/></g><g><path d="M16.895342,20.550172216796874C16.609404,20.550172216796874,16.423467,20.438972216796877,16.314092,20.337672216796875C15.335967,19.442872216796875,16.782842,16.286912216796875,18.71722,13.632322216796876C20.46097,11.241702216796876,22.3594,9.556643216796875,23.440649999999998,9.442091986796875C23.79534,9.403908416796876,24.01878,9.533400616796875,24.145339999999997,9.647951216796875C24.6094,10.071291216796874,24.5719,10.984372216796874,24.02815,12.362302216796875C23.96097,12.534962216796874,23.77503,12.616312216796874,23.61253,12.543262216796876C23.45159,12.471872216796875,23.37347,12.272662216796874,23.44222,12.101662216796875C23.94847,10.818362216796874,23.85315,10.272170216796875,23.731279999999998,10.160939216796875C23.68597,10.117775216796876,23.6094,10.104494216796875,23.50472,10.114455216796875C22.74065,10.195803216796875,21.02503,11.572072216796876,19.22034,14.047362216796875C17.06878,16.997462216796876,16.307842,19.441172216796875,16.728154,19.826372216796877C16.773467,19.867872216796876,16.850029,19.882772216796873,16.954717,19.871172216796875C17.71878,19.789872216796873,19.43597,18.411912216796875,21.235970000000002,15.938282216796875C21.71409,15.284182216796875,22.1469,14.618462216796875,22.52503,13.961032216796875C22.61722,13.800002216796875,22.81253,13.751862216796875,22.96253,13.848142216796875C23.11253,13.946092216796874,23.16097,14.153612216796876,23.06878,14.312992216796875C22.67815,14.991992216796875,22.231279999999998,15.679302216796875,21.73909,16.353322216796876C20.00003,18.742292216796876,18.10315,20.427372216796876,17.02034,20.543572216796875C16.976592,20.548572216796877,16.935967,20.550172216796874,16.895342,20.550172216796874Z" fill="#E5FD52" fill-opacity="0.6000000238418579"/><path d="M17.03101,20.642972216796878L17.03165,20.642872216796874Q17.87529,20.551972216796877,19.200029999999998,19.375492216796875Q20.509050000000002,18.212962216796875,21.81985,16.412292216796875Q22.557850000000002,15.401632216796875,23.15534,14.363062216796875Q23.24408,14.209642216796876,23.20393,14.035112216796875Q23.16365,13.860042216796874,23.01655,13.763992216796876Q22.86705,13.668022216796874,22.69744,13.711182216796875Q22.52818,13.754252216796875,22.43834,13.911182216796874Q21.86433,14.909182216796875,21.15511,15.879442216796875Q19.88436,17.625772216796875,18.64058,18.726972216796874Q17.531109999999998,19.709272216796876,16.943684,19.771772216796876Q16.830368,19.784372216796875,16.795715,19.752672216796874Q16.673876,19.640972216796875,16.736721,19.189552216796876Q16.807337,18.682282216796875,17.10278,17.935512216796873Q17.80747,16.154312216796875,19.30115,14.106282216796874Q20.57543,12.358482216796876,21.819029999999998,11.258072216796876Q22.92847,10.276372216796876,23.51419,10.214005216796876Q23.63039,10.202948216796875,23.66387,10.234802216796876Q23.75137,10.314664216796874,23.7226,10.684012216796875Q23.680419999999998,11.225322216796876,23.349429999999998,12.064362216796875Q23.28326,12.228962216796875,23.348,12.395962216796875Q23.413249999999998,12.564262216796875,23.57153,12.634472216796874Q23.733710000000002,12.707372216796875,23.89605,12.636592216796874Q24.05584,12.566922216796875,24.12117,12.399012216796875Q24.96511,10.260414216796875,24.21245,9.573810216796875Q23.90103,9.291952216796876,23.43012,9.342647616796874Q22.58753,9.431913246796874,21.261,10.608882216796875Q19.95095,11.771232216796875,18.636400000000002,13.573432216796874Q17.06235,15.733542216796874,16.330315,17.608552216796873Q15.501967,19.730272216796877,16.246152,20.411072216796875Q16.504415,20.650172216796875,16.895342,20.650172216796875Q16.967319,20.650172216796875,17.03101,20.642972216796878ZM19.06722,19.225952216796877Q17.78983,20.360372216796875,17.00967,20.444172216796876L17.00903,20.444172216796876Q16.956336,20.450172216796876,16.895342,20.450172216796876Q16.582787,20.450172216796876,16.382031,20.264272216796876Q15.738143,19.675272216796877,16.51662,17.681292216796876Q17.23923,15.830392216796875,18.79804,13.691222216796875Q20.09982,11.906522216796875,21.39374,10.758482216796875Q22.67233,9.624048216796876,23.45119,9.541534216796874Q23.8333,9.500400216796875,24.07824,9.722093216796875Q24.728450000000002,10.315250216796874,23.93513,12.325602216796876Q23.899630000000002,12.416842216796875,23.816110000000002,12.453262216796876Q23.73494,12.488652216796876,23.65353,12.452052216796876Q23.44611,12.360052216796875,23.535,12.138962216796875Q23.87749,11.270792216796876,23.92199,10.699542216796875Q23.95836,10.232797216796875,23.79869,10.087077216796875Q23.702280000000002,9.995205216796876,23.49524,10.014905216796874Q22.84377,10.084259216796875,21.6865,11.108292216796874Q20.42663,12.223102216796875,19.13954,13.988452216796876Q17.63087,16.057042216796873,16.916808,17.861932216796873Q16.256834,19.530072216796874,16.660594,19.900072216796875Q16.762217,19.993172216796875,16.96575,19.970572216796874Q17.61584,19.901372216796876,18.77315,18.876722216796875Q20.03326,17.761052216796877,21.31682,15.997122216796875Q22.03225,15.018382216796875,22.611710000000002,14.010892216796876Q22.65964,13.927182216796876,22.746760000000002,13.905002216796875Q22.83214,13.883282216796875,22.90851,13.932302216796874Q23.10082,14.057882216796875,22.982219999999998,14.262922216796875Q22.38992,15.292472216796874,21.65833,16.294352216796874Q20.36007,18.077772216796873,19.06722,19.225952216796877Z" fill-rule="evenodd" fill="#E5FD52" fill-opacity="0.6000000238418579"/></g><g><path d="M17.697684375,21.484886523437503C17.624244375,21.484886523437503,17.550804375,21.4582865234375,17.491434375,21.4034865234375L16.352369375,20.369286523437502C16.217993975,20.2480865234375,16.202368975,20.0355865234375,16.316431475,19.8927865234375C16.432056375,19.7499865234375,16.632056375,19.733386523437503,16.764868375,19.8545865234375L17.903934375,20.8888865234375C18.038304375,21.0100865234375,18.053934375,21.2225865234375,17.939864375,21.3652865234375C17.875804375,21.4433865234375,17.786744375,21.484886523437503,17.697684375,21.484886523437503ZM25.132054375,11.301466523437501C25.058614374999998,11.301466523437501,24.985184375,11.274906523437501,24.925804375,11.2201165234375L23.789864375,10.1858395234375C23.655494375,10.0646485234375,23.641434375,9.8504875234375,23.755494374999998,9.7093745234375C23.871114375,9.5666013234375,24.071114375,9.5516599234375,24.203934375,9.6728513234375L25.339864374999998,10.7071265234375C25.474244374999998,10.8283165234375,25.488304375,11.0424765234375,25.374244375,11.183596523437501C25.310184375,11.2616165234375,25.221114375,11.301466523437501,25.132054375,11.301466523437501ZM29.674234374999997,20.0155865234375C29.499234375,20.0155865234375,29.355534374999998,19.864586523437502,29.355534374999998,19.6769865234375L29.352334374999998,16.2918965234375C29.352334374999998,16.1059565234375,29.494534375,15.9532265234375,29.671134375,15.9532265234375C29.846134375,15.9532265234375,29.989834375,16.1042965234375,29.989834375,16.2918965234375L29.993034375,19.6769865234375C29.993034375,19.8628865234375,29.850834374999998,20.0155865234375,29.674234374999997,20.0155865234375Z" fill="#E5FD52" fill-opacity="0.6000000238418579"/></g><g><path d="M24.2606234375,22.564561572265625C22.4528134375,22.564561572265625,19.8037134375,22.264071572265625,18.7490234375,21.761051572265625C18.5880859375,21.684681572265625,18.5176815375,21.483791572265623,18.5895565375,21.314451572265625C18.6614315375,21.143461572265625,18.8491154375,21.065421572265624,19.0100524375,21.145111572265627C19.9850534375,21.609951572265626,22.5371934375,21.888871572265625,24.2606234375,21.888871572265625C27.3762534375,21.888871572265625,29.3637234375,21.008990572265624,29.3637234375,20.403033572265624C29.3637234375,20.217095572265624,29.5059234375,20.064361572265625,29.682523437500002,20.064361572265625C29.8575234375,20.064361572265625,30.001223437500002,20.215435572265626,30.001223437500002,20.403033572265624C29.999723437500002,21.822471572265624,27.1121934375,22.564561572265625,24.2606234375,22.564561572265625Z" fill="#E5FD52" fill-opacity="0.6000000238418579"/><path d="M28.2475334375,22.158251572265627Q30.1500234375,21.518001572265625,30.1512234375,20.403198572265627L30.1512234375,20.403033572265624Q30.1512234375,20.202987572265624,30.0165234375,20.060359022265626Q29.8787234375,19.914361572265626,29.682523437500002,19.914361572265626Q29.4854234375,19.914361572265626,29.3475234375,20.061351162265623Q29.2137234375,20.203953572265625,29.2137234375,20.403033572265624Q29.2137234375,20.557254572265624,28.9174234375,20.768733572265624Q28.5653234375,21.019940572265625,27.9330734375,21.230901572265626Q26.4105534375,21.738871572265626,24.2606334375,21.738871572265626Q22.871813437500002,21.738871572265626,21.3741734375,21.542581572265625Q19.7441834375,21.328941572265624,19.0766124375,21.010686572265627Q18.8958584375,20.921187572265627,18.7098904375,20.996829572265625Q18.5295122375,21.070201572265624,18.4514794375,21.255841572265624Q18.3746314375,21.436901572265626,18.4406294375,21.622801572265626Q18.5080622375,21.812741572265626,18.6844504375,21.896431572265627Q19.4543014375,22.263611572265624,21.2022934375,22.500081572265625Q22.7876834375,22.714561572265623,24.2606234375,22.714561572265623Q26.5944534375,22.714561572265623,28.2475334375,22.158251572265627ZM29.8512234375,20.402868572265625L29.8512234375,20.403033572265624Q29.850123437500002,21.302401572265627,28.1518434375,21.873921572265626Q26.5453334375,22.414561572265626,24.2606234375,22.414561572265626Q22.8078834375,22.414561572265626,21.2425134375,22.202791572265625Q19.5410564375,21.972611572265624,18.8135974375,21.625661572265624Q18.7491294375,21.595071572265624,18.7233414375,21.522431572265624Q18.6964194375,21.446601572265624,18.7276334375,21.373061572265627Q18.7578424375,21.301191572265626,18.8229224375,21.274721572265626Q18.8837794375,21.249971572265625,18.9434934375,21.279531572265626Q19.6580234375,21.620211572265625,21.3351834375,21.840041572265626Q22.8522334375,22.038871572265624,24.2606334375,22.038871572265624Q26.4592934375,22.038871572265624,28.0280234375,21.515471572265625Q28.7030234375,21.290281572265624,29.091623437499997,21.012933572265624Q29.513723437499998,20.711727572265627,29.513723437499998,20.403033572265624Q29.513723437499998,20.322632572265626,29.5663234375,20.266590572265624Q29.615323437500003,20.214361572265624,29.682523437500002,20.214361572265624Q29.7493234375,20.214361572265624,29.7984234375,20.266337572265623Q29.8512234375,20.322199572265625,29.8512234375,20.402868572265625Z" fill-rule="evenodd" fill="#E5FD52" fill-opacity="0.6000000238418579"/></g></g></g><g><path d="M0,16C0,24.2843,6.71573,31,15,31L218.302,31L231.297,16L218.302,1L15,1C6.71573,1,0,7.71573,0,16Z" fill="url(#master_svg3_654_3499)" fill-opacity="1"/><path d="M0,16C0,24.2843,6.71573,31,15,31L218.302,31L231.297,16L218.302,1L15,1C6.71573,1,0,7.71573,0,16ZM15,30L217.846,30L229.973,16L217.846,2L15,2Q9.20101,2,5.10051,6.10051Q1,10.20101,1,16Q1,21.799,5.10051,25.8995Q9.20101,30,15,30Z" fill-rule="evenodd" fill="url(#master_svg4_654_3669)" fill-opacity="1"/></g></g></svg>