<svg xmlns="http://www.w3.org/2000/svg" xmlns:xlink="http://www.w3.org/1999/xlink" fill="none" version="1.1" width="448" height="30" viewBox="0 0 448 30"><defs><linearGradient x1="1" y1="0.5" x2="0.3680039644241333" y2="0.5" id="master_svg0_552_6428"><stop offset="0%" stop-color="#FFFFFF" stop-opacity="0.5"/><stop offset="100%" stop-color="#5C7CFF" stop-opacity="0"/></linearGradient><linearGradient x1="1" y1="0.5" x2="0" y2="0.5" id="master_svg1_552_6660"><stop offset="0%" stop-color="#FFFFFF" stop-opacity="0.4000000059604645"/><stop offset="100%" stop-color="#FFFFFF" stop-opacity="0.20000000298023224"/></linearGradient><clipPath id="master_svg2_654_2535"><rect x="14.5" y="5.5" width="17" height="18" rx="0"/></clipPath><linearGradient x1="1" y1="0.5" x2="0" y2="0.5" id="master_svg3_654_3499"><stop offset="0%" stop-color="#BCBF19" stop-opacity="0.4000000059604645"/><stop offset="100%" stop-color="#5C7CFF" stop-opacity="0"/></linearGradient><linearGradient x1="1" y1="0.5" x2="0" y2="0.5" id="master_svg4_654_3669"><stop offset="0%" stop-color="#A8A609" stop-opacity="1"/><stop offset="100%" stop-color="#5C7CFF" stop-opacity="0"/></linearGradient></defs><g><g><rect x="1.5" y="0.5" width="446" height="29" rx="14.5" stroke="url(#master_svg0_552_6428)" fill-opacity="0" fill="none" stroke-width="1"/></g><g><path d="M1,15C1,23.2843,7.71573,30,16,30L219.302,30L232.297,15L219.302,0L16,0C7.71573,0,1,6.71573,1,15ZM16,29L218.846,29L230.973,15L218.846,1L16,1Q10.20101,1,6.10051,5.10051Q2,9.20101,2,15Q2,20.799,6.10051,24.8995Q10.20101,29,16,29Z" fill-rule="evenodd" fill="url(#master_svg1_552_6660)" fill-opacity="1"/></g><g><path d="M45.602000000000004,12.097999999999999Q45.602000000000004,13.316,44.769,14.121Q43.936,14.926,42.228,14.926L40.352,14.926L40.352,19L39.078,19L39.078,9.242L42.228,9.242Q43.88,9.242,44.741,10.04Q45.602000000000004,10.838000000000001,45.602000000000004,12.097999999999999ZM42.228,13.876Q43.292,13.876,43.796,13.414Q44.3,12.952,44.3,12.097999999999999Q44.3,10.292,42.228,10.292L40.352,10.292L40.352,13.876L42.228,13.876ZM50.992000000000004,11.187999999999999Q51.86,11.187999999999999,52.56,11.559000000000001Q53.26,11.93,53.659,12.672Q54.058,13.414,54.058,14.478L54.058,19L52.798,19L52.798,14.66Q52.798,13.512,52.224000000000004,12.902999999999999Q51.65,12.294,50.656,12.294Q49.647999999999996,12.294,49.053,12.924Q48.458,13.554,48.458,14.758L48.458,19L47.184,19L47.184,8.64L48.458,8.64L48.458,12.42Q48.836,11.832,49.501,11.51Q50.166,11.187999999999999,50.992000000000004,11.187999999999999ZM55.668,15.136Q55.668,13.96,56.144,13.071Q56.620000000000005,12.182,57.453,11.692Q58.286,11.202,59.308,11.202Q60.316,11.202,61.058,11.636Q61.8,12.07,62.164,12.728L62.164,11.328L63.452,11.328L63.452,19L62.164,19L62.164,17.572Q61.786,18.244,61.037,18.685000000000002Q60.288,19.125999999999998,59.294,19.125999999999998Q58.272,19.125999999999998,57.446,18.622Q56.620000000000005,18.118000000000002,56.144,17.208Q55.668,16.298000000000002,55.668,15.136ZM62.164,15.15Q62.164,14.282,61.814,13.638Q61.464,12.994,60.869,12.651Q60.274,12.308,59.56,12.308Q58.846000000000004,12.308,58.257999999999996,12.644Q57.67,12.98,57.32,13.624Q56.97,14.268,56.97,15.136Q56.97,16.018,57.32,16.669Q57.67,17.32,58.257999999999996,17.663Q58.846000000000004,18.006,59.56,18.006Q60.274,18.006,60.869,17.663Q61.464,17.32,61.814,16.669Q62.164,16.018,62.164,15.15ZM68.3034,19.125999999999998Q67.41929999999999,19.125999999999998,66.7175,18.825Q66.01599999999999,18.524,65.6089,17.985Q65.202,17.445999999999998,65.202,16.746000000000002L66.504,16.746000000000002Q66.56,17.32,67.043,17.683999999999997Q67.526,18.048000000000002,68.31,18.048000000000002Q69.038,18.048000000000002,69.458,17.726Q69.878,17.404,69.878,16.914Q69.878,16.41,69.43,16.165Q68.982,15.92,68.044,15.682Q67.19,15.458,66.651,15.227Q66.112,14.996,65.727,14.541Q65.342,14.086,65.342,13.344Q65.342,12.756,65.69200000000001,12.266Q66.042,11.776,66.686,11.489Q67.33,11.202,68.156,11.202Q69.43,11.202,70.214,11.846Q70.99799999999999,12.49,71.054,13.61L69.752,13.61Q69.752,13.008,69.309,12.644Q68.8661,12.280000000000001,68.1208,12.280000000000001Q67.4317,12.280000000000001,67.0238,12.574Q66.616,12.868,66.616,13.344Q66.616,13.722,66.861,13.967Q67.106,14.212,67.477,14.359Q67.848,14.506,68.506,14.688Q69.332,14.912,69.85,15.129Q70.368,15.346,70.739,15.78Q71.11,16.214,71.11,16.914Q71.11,17.544,70.75909999999999,18.048000000000002Q70.4085,18.552,69.7699,18.839Q69.1314,19.125999999999998,68.3034,19.125999999999998ZM79.916,14.87Q79.916,15.234,79.874,15.64L73.74199999999999,15.64Q73.812,16.774,74.519,17.411Q75.226,18.048000000000002,76.23400000000001,18.048000000000002Q77.06,18.048000000000002,77.613,17.663Q78.166,17.278,78.39,16.634L79.762,16.634Q79.45400000000001,17.740000000000002,78.53,18.433Q77.606,19.125999999999998,76.23400000000001,19.125999999999998Q75.142,19.125999999999998,74.281,18.636Q73.42,18.146,72.93,17.243000000000002Q72.44,16.34,72.44,15.15Q72.44,13.96,72.916,13.064Q73.392,12.168,74.253,11.684999999999999Q75.114,11.202,76.23400000000001,11.202Q77.326,11.202,78.166,11.678Q79.006,12.154,79.461,12.987Q79.916,13.82,79.916,14.87ZM78.6,14.604Q78.6,13.876,78.27799999999999,13.351Q77.956,12.826,77.40299999999999,12.553Q76.85,12.280000000000001,76.178,12.280000000000001Q75.212,12.280000000000001,74.533,12.896Q73.854,13.512,73.756,14.604L78.6,14.604ZM86.916,13.33L86.916,14.408L81.33,14.408L81.33,13.33L86.916,13.33ZM88.76400000000001,10.04L88.76400000000001,8.878L91.396,8.878L91.396,19L90.108,19L90.108,10.04L88.76400000000001,10.04ZM98.186,10.082Q97.822,10.082,97.57,9.83Q97.318,9.578,97.318,9.214Q97.318,8.85,97.57,8.597999999999999Q97.822,8.346,98.186,8.346Q98.536,8.346,98.781,8.597999999999999Q99.02600000000001,8.85,99.02600000000001,9.214Q99.02600000000001,9.578,98.781,9.83Q98.536,10.082,98.186,10.082ZM98.80199999999999,11.328L98.80199999999999,19L97.52799999999999,19L97.52799999999999,11.328L98.80199999999999,11.328ZM103.6674,19.125999999999998Q102.7832,19.125999999999998,102.0815,18.825Q101.38,18.524,100.97290000000001,17.985Q100.566,17.445999999999998,100.566,16.746000000000002L101.868,16.746000000000002Q101.924,17.32,102.407,17.683999999999997Q102.89,18.048000000000002,103.674,18.048000000000002Q104.402,18.048000000000002,104.822,17.726Q105.242,17.404,105.242,16.914Q105.242,16.41,104.794,16.165Q104.346,15.92,103.408,15.682Q102.554,15.458,102.015,15.227Q101.476,14.996,101.09100000000001,14.541Q100.706,14.086,100.706,13.344Q100.706,12.756,101.056,12.266Q101.406,11.776,102.05,11.489Q102.694,11.202,103.52,11.202Q104.794,11.202,105.578,11.846Q106.362,12.49,106.418,13.61L105.116,13.61Q105.116,13.008,104.673,12.644Q104.2301,12.280000000000001,103.4848,12.280000000000001Q102.7957,12.280000000000001,102.3877,12.574Q101.97999999999999,12.868,101.97999999999999,13.344Q101.97999999999999,13.722,102.225,13.967Q102.47,14.212,102.841,14.359Q103.212,14.506,103.87,14.688Q104.696,14.912,105.214,15.129Q105.732,15.346,106.103,15.78Q106.474,16.214,106.474,16.914Q106.474,17.544,106.1231,18.048000000000002Q105.7725,18.552,105.1339,18.839Q104.4954,19.125999999999998,103.6674,19.125999999999998ZM113.292,10.277999999999999L113.292,13.54L116.848,13.54L116.848,14.59L113.292,14.59L113.292,17.95L117.268,17.95L117.268,19L112.018,19L112.018,9.228L117.268,9.228L117.268,10.277999999999999L113.292,10.277999999999999ZM122.938,11.187999999999999Q124.338,11.187999999999999,125.206,12.035Q126.074,12.882,126.074,14.478L126.074,19L124.814,19L124.814,14.66Q124.814,13.512,124.24,12.902999999999999Q123.666,12.294,122.672,12.294Q121.664,12.294,121.069,12.924Q120.474,13.554,120.474,14.758L120.474,19L119.2,19L119.2,11.328L120.474,11.328L120.474,12.42Q120.852,11.832,121.503,11.51Q122.154,11.187999999999999,122.938,11.187999999999999ZM127.684,15.136Q127.684,13.96,128.16,13.071Q128.636,12.182,129.469,11.692Q130.30200000000002,11.202,131.338,11.202Q132.23399999999998,11.202,133.00400000000002,11.615Q133.774,12.027999999999999,134.18,12.7L134.18,8.64L135.46800000000002,8.64L135.46800000000002,19L134.18,19L134.18,17.558Q133.80200000000002,18.244,133.06,18.685000000000002Q132.31799999999998,19.125999999999998,131.324,19.125999999999998Q130.30200000000002,19.125999999999998,129.469,18.622Q128.636,18.118000000000002,128.16,17.208Q127.684,16.298000000000002,127.684,15.136ZM134.18,15.15Q134.18,14.282,133.82999999999998,13.638Q133.48000000000002,12.994,132.885,12.651Q132.29000000000002,12.308,131.576,12.308Q130.862,12.308,130.274,12.644Q129.686,12.98,129.336,13.624Q128.986,14.268,128.986,15.136Q128.986,16.018,129.336,16.669Q129.686,17.32,130.274,17.663Q130.862,18.006,131.576,18.006Q132.29000000000002,18.006,132.885,17.663Q133.48000000000002,17.32,133.82999999999998,16.669Q134.18,16.018,134.18,15.15ZM144.624,14.87Q144.624,15.234,144.582,15.64L138.45,15.64Q138.51999999999998,16.774,139.227,17.411Q139.934,18.048000000000002,140.942,18.048000000000002Q141.768,18.048000000000002,142.321,17.663Q142.874,17.278,143.098,16.634L144.47,16.634Q144.162,17.740000000000002,143.238,18.433Q142.314,19.125999999999998,140.942,19.125999999999998Q139.85,19.125999999999998,138.989,18.636Q138.128,18.146,137.638,17.243000000000002Q137.148,16.34,137.148,15.15Q137.148,13.96,137.624,13.064Q138.1,12.168,138.961,11.684999999999999Q139.822,11.202,140.942,11.202Q142.034,11.202,142.874,11.678Q143.714,12.154,144.16899999999998,12.987Q144.624,13.82,144.624,14.87ZM143.308,14.604Q143.308,13.876,142.986,13.351Q142.664,12.826,142.111,12.553Q141.558,12.280000000000001,140.886,12.280000000000001Q139.92000000000002,12.280000000000001,139.24099999999999,12.896Q138.562,13.512,138.464,14.604L143.308,14.604ZM145.828,15.136Q145.828,13.96,146.304,13.071Q146.78,12.182,147.613,11.692Q148.446,11.202,149.482,11.202Q150.378,11.202,151.148,11.615Q151.918,12.027999999999999,152.324,12.7L152.324,8.64L153.612,8.64L153.612,19L152.324,19L152.324,17.558Q151.946,18.244,151.204,18.685000000000002Q150.462,19.125999999999998,149.46800000000002,19.125999999999998Q148.446,19.125999999999998,147.613,18.622Q146.78,18.118000000000002,146.304,17.208Q145.828,16.298000000000002,145.828,15.136ZM152.324,15.15Q152.324,14.282,151.974,13.638Q151.624,12.994,151.029,12.651Q150.434,12.308,149.72,12.308Q149.006,12.308,148.418,12.644Q147.82999999999998,12.98,147.48000000000002,13.624Q147.13,14.268,147.13,15.136Q147.13,16.018,147.48000000000002,16.669Q147.82999999999998,17.32,148.418,17.663Q149.006,18.006,149.72,18.006Q150.434,18.006,151.029,17.663Q151.624,17.32,151.974,16.669Q152.324,16.018,152.324,15.15Z" fill="#E5FD52" fill-opacity="0.6000000238418579"/></g><g><path d="M288.018015625,13.097999999999999Q288.018015625,14.316,287.185015625,15.121Q286.352015625,15.926,284.644015625,15.926L282.768015625,15.926L282.768015625,20L281.494015625,20L281.494015625,10.242L284.644015625,10.242Q286.296015625,10.242,287.157015625,11.04Q288.018015625,11.838000000000001,288.018015625,13.097999999999999ZM284.644015625,14.876Q285.708015625,14.876,286.212015625,14.414Q286.716015625,13.952,286.716015625,13.097999999999999Q286.716015625,11.292,284.644015625,11.292L282.768015625,11.292L282.768015625,14.876L284.644015625,14.876ZM293.408015625,12.187999999999999Q294.276015625,12.187999999999999,294.976015625,12.559000000000001Q295.676015625,12.93,296.075015625,13.672Q296.474015625,14.414,296.474015625,15.478L296.474015625,20L295.214015625,20L295.214015625,15.66Q295.214015625,14.512,294.640015625,13.902999999999999Q294.066015625,13.294,293.072015625,13.294Q292.064015625,13.294,291.469015625,13.924Q290.874015625,14.554,290.874015625,15.758L290.874015625,20L289.600015625,20L289.600015625,9.64L290.874015625,9.64L290.874015625,13.42Q291.252015625,12.832,291.917015625,12.51Q292.582015625,12.187999999999999,293.408015625,12.187999999999999ZM298.084015625,16.136Q298.084015625,14.96,298.560015625,14.071Q299.036015625,13.182,299.869015625,12.692Q300.702015625,12.202,301.724015625,12.202Q302.732015625,12.202,303.474015625,12.636Q304.216015625,13.07,304.580015625,13.728L304.580015625,12.328L305.868015625,12.328L305.868015625,20L304.580015625,20L304.580015625,18.572Q304.202015625,19.244,303.453015625,19.685000000000002Q302.704015625,20.125999999999998,301.710015625,20.125999999999998Q300.688015625,20.125999999999998,299.862015625,19.622Q299.036015625,19.118000000000002,298.560015625,18.208Q298.084015625,17.298000000000002,298.084015625,16.136ZM304.580015625,16.15Q304.580015625,15.282,304.230015625,14.638Q303.880015625,13.994,303.285015625,13.651Q302.690015625,13.308,301.976015625,13.308Q301.262015625,13.308,300.674015625,13.644Q300.086015625,13.98,299.736015625,14.624Q299.386015625,15.268,299.386015625,16.136Q299.386015625,17.018,299.736015625,17.669Q300.086015625,18.32,300.674015625,18.663Q301.262015625,19.006,301.976015625,19.006Q302.690015625,19.006,303.285015625,18.663Q303.880015625,18.32,304.230015625,17.669Q304.580015625,17.018,304.580015625,16.15ZM310.719415625,20.125999999999998Q309.835315625,20.125999999999998,309.133515625,19.825Q308.432015625,19.524,308.024915625,18.985Q307.618015625,18.445999999999998,307.618015625,17.746000000000002L308.920015625,17.746000000000002Q308.976015625,18.32,309.459015625,18.683999999999997Q309.942015625,19.048000000000002,310.726015625,19.048000000000002Q311.454015625,19.048000000000002,311.87401562499997,18.726Q312.294015625,18.404,312.294015625,17.914Q312.294015625,17.41,311.846015625,17.165Q311.39801562499997,16.92,310.460015625,16.682000000000002Q309.606015625,16.458,309.067015625,16.227Q308.528015625,15.996,308.143015625,15.541Q307.758015625,15.086,307.758015625,14.344Q307.758015625,13.756,308.108015625,13.266Q308.45801562500003,12.776,309.102015625,12.489Q309.746015625,12.202,310.572015625,12.202Q311.846015625,12.202,312.630015625,12.846Q313.414015625,13.49,313.470015625,14.61L312.168015625,14.61Q312.168015625,14.008,311.725015625,13.644Q311.282115625,13.280000000000001,310.536815625,13.280000000000001Q309.847715625,13.280000000000001,309.439815625,13.574Q309.032015625,13.868,309.032015625,14.344Q309.032015625,14.722,309.277015625,14.967Q309.522015625,15.212,309.893015625,15.359Q310.264015625,15.506,310.922015625,15.688Q311.748015625,15.912,312.266015625,16.128999999999998Q312.784015625,16.346,313.155015625,16.78Q313.526015625,17.214,313.526015625,17.914Q313.526015625,18.544,313.175115625,19.048000000000002Q312.824515625,19.552,312.185915625,19.839Q311.547415625,20.125999999999998,310.719415625,20.125999999999998ZM322.332015625,15.87Q322.332015625,16.234,322.290015625,16.64L316.158015625,16.64Q316.228015625,17.774,316.935015625,18.411Q317.642015625,19.048000000000002,318.650015625,19.048000000000002Q319.476015625,19.048000000000002,320.029015625,18.663Q320.582015625,18.278,320.806015625,17.634L322.178015625,17.634Q321.870015625,18.740000000000002,320.946015625,19.433Q320.022015625,20.125999999999998,318.650015625,20.125999999999998Q317.558015625,20.125999999999998,316.697015625,19.636Q315.836015625,19.146,315.346015625,18.243000000000002Q314.856015625,17.34,314.856015625,16.15Q314.856015625,14.96,315.332015625,14.064Q315.808015625,13.168,316.669015625,12.684999999999999Q317.530015625,12.202,318.650015625,12.202Q319.742015625,12.202,320.582015625,12.678Q321.422015625,13.154,321.877015625,13.987Q322.332015625,14.82,322.332015625,15.87ZM321.016015625,15.604Q321.016015625,14.876,320.694015625,14.351Q320.372015625,13.826,319.819015625,13.553Q319.266015625,13.280000000000001,318.594015625,13.280000000000001Q317.628015625,13.280000000000001,316.949015625,13.896Q316.270015625,14.512,316.172015625,15.604L321.016015625,15.604ZM329.332015625,14.33L329.332015625,15.408L323.746015625,15.408L323.746015625,14.33L329.332015625,14.33ZM331.362015625,18.978Q333.140015625,17.55,334.14801562499997,16.633Q335.156015625,15.716,335.849015625,14.715Q336.542015625,13.714,336.542015625,12.748000000000001Q336.542015625,11.838000000000001,336.097715625,11.312999999999999Q335.653715625,10.788,334.666415625,10.788Q333.707715625,10.788,333.178715625,11.383Q332.650015625,11.978,332.650015625,12.972000000000001L331.404015625,12.972000000000001Q331.460015625,11.404,332.356015625,10.55Q333.252015625,9.696,334.666015625,9.696Q336.108015625,9.696,336.955015625,10.494Q337.802015625,11.292,337.802015625,12.692Q337.802015625,13.854,337.109015625,14.953Q336.416015625,16.052,335.534015625,16.884999999999998Q334.652015625,17.718,333.280015625,18.823999999999998L338.096015625,18.823999999999998L338.096015625,19.887999999999998L331.362015625,19.887999999999998L331.362015625,18.978ZM344.172015625,11.082Q343.808015625,11.082,343.556015625,10.83Q343.304015625,10.578,343.304015625,10.214Q343.304015625,9.85,343.556015625,9.597999999999999Q343.808015625,9.346,344.172015625,9.346Q344.522015625,9.346,344.767015625,9.597999999999999Q345.012015625,9.85,345.012015625,10.214Q345.012015625,10.578,344.767015625,10.83Q344.522015625,11.082,344.172015625,11.082ZM344.788015625,12.328L344.788015625,20L343.514015625,20L343.514015625,12.328L344.788015625,12.328ZM349.653415625,20.125999999999998Q348.769215625,20.125999999999998,348.067515625,19.825Q347.366015625,19.524,346.95891562500003,18.985Q346.55201562499997,18.445999999999998,346.55201562499997,17.746000000000002L347.854015625,17.746000000000002Q347.910015625,18.32,348.393015625,18.683999999999997Q348.876015625,19.048000000000002,349.660015625,19.048000000000002Q350.388015625,19.048000000000002,350.808015625,18.726Q351.228015625,18.404,351.228015625,17.914Q351.228015625,17.41,350.78001562500003,17.165Q350.332015625,16.92,349.394015625,16.682000000000002Q348.540015625,16.458,348.001015625,16.227Q347.462015625,15.996,347.077015625,15.541Q346.692015625,15.086,346.692015625,14.344Q346.692015625,13.756,347.042015625,13.266Q347.392015625,12.776,348.036015625,12.489Q348.680015625,12.202,349.50601562500003,12.202Q350.78001562500003,12.202,351.564015625,12.846Q352.348015625,13.49,352.404015625,14.61L351.10201562500004,14.61Q351.10201562500004,14.008,350.659015625,13.644Q350.216115625,13.280000000000001,349.470815625,13.280000000000001Q348.781715625,13.280000000000001,348.373715625,13.574Q347.966015625,13.868,347.966015625,14.344Q347.966015625,14.722,348.211015625,14.967Q348.456015625,15.212,348.827015625,15.359Q349.198015625,15.506,349.856015625,15.688Q350.682015625,15.912,351.200015625,16.128999999999998Q351.718015625,16.346,352.089015625,16.78Q352.460015625,17.214,352.460015625,17.914Q352.460015625,18.544,352.109115625,19.048000000000002Q351.758515625,19.552,351.119915625,19.839Q350.481415625,20.125999999999998,349.653415625,20.125999999999998ZM357.52801562499997,15.114Q357.52801562499997,13.686,358.172015625,12.545Q358.816015625,11.404,359.92901562500003,10.76Q361.042015625,10.116,362.400015625,10.116Q363.996015625,10.116,365.186015625,10.886Q366.376015625,11.655999999999999,366.922015625,13.07L365.396015625,13.07Q364.990015625,12.187999999999999,364.22701562500004,11.712Q363.464015625,11.236,362.400015625,11.236Q361.378015625,11.236,360.566015625,11.712Q359.75401562499997,12.187999999999999,359.292015625,13.062999999999999Q358.830015625,13.937999999999999,358.830015625,15.114Q358.830015625,16.276,359.292015625,17.151Q359.75401562499997,18.026,360.566015625,18.502000000000002Q361.378015625,18.978,362.400015625,18.978Q363.464015625,18.978,364.22701562500004,18.509Q364.990015625,18.04,365.396015625,17.158L366.922015625,17.158Q366.376015625,18.558,365.186015625,19.320999999999998Q363.996015625,20.084,362.400015625,20.084Q361.042015625,20.084,359.92901562500003,19.447Q358.816015625,18.810000000000002,358.172015625,17.676000000000002Q357.52801562499997,16.542,357.52801562499997,15.114ZM372.158015625,20.125999999999998Q371.080015625,20.125999999999998,370.205015625,19.636Q369.330015625,19.146,368.83301562500003,18.243000000000002Q368.336015625,17.34,368.336015625,16.15Q368.336015625,14.974,368.847015625,14.071Q369.358015625,13.168,370.240015625,12.684999999999999Q371.122015625,12.202,372.214015625,12.202Q373.306015625,12.202,374.188015625,12.684999999999999Q375.070015625,13.168,375.581015625,14.064Q376.092015625,14.96,376.092015625,16.15Q376.092015625,17.34,375.567015625,18.243000000000002Q375.042015625,19.146,374.146015625,19.636Q373.250015625,20.125999999999998,372.158015625,20.125999999999998ZM372.158015625,19.006Q372.844015625,19.006,373.446015625,18.683999999999997Q374.048015625,18.362000000000002,374.419015625,17.718Q374.790015625,17.073999999999998,374.790015625,16.15Q374.790015625,15.226,374.426015625,14.582Q374.062015625,13.937999999999999,373.474015625,13.623000000000001Q372.886015625,13.308,372.200015625,13.308Q371.500015625,13.308,370.919015625,13.623000000000001Q370.338015625,13.937999999999999,369.988015625,14.582Q369.638015625,15.226,369.638015625,16.15Q369.638015625,17.088,369.981015625,17.732Q370.324015625,18.375999999999998,370.89801562499997,18.691000000000003Q371.472015625,19.006,372.158015625,19.006ZM386.998015625,12.187999999999999Q387.894015625,12.187999999999999,388.594015625,12.559000000000001Q389.294015625,12.93,389.700015625,13.672Q390.106015625,14.414,390.106015625,15.478L390.106015625,20L388.846015625,20L388.846015625,15.66Q388.846015625,14.512,388.279015625,13.902999999999999Q387.712015625,13.294,386.746015625,13.294Q385.752015625,13.294,385.164015625,13.931000000000001Q384.57601562499997,14.568,384.57601562499997,15.772L384.57601562499997,20L383.316015625,20L383.316015625,15.66Q383.316015625,14.512,382.74901562499997,13.902999999999999Q382.182015625,13.294,381.216015625,13.294Q380.222015625,13.294,379.634015625,13.931000000000001Q379.046015625,14.568,379.046015625,15.772L379.046015625,20L377.772015625,20L377.772015625,12.328L379.046015625,12.328L379.046015625,13.434000000000001Q379.424015625,12.832,380.061015625,12.51Q380.698015625,12.187999999999999,381.468015625,12.187999999999999Q382.43401562500003,12.187999999999999,383.176015625,12.622Q383.918015625,13.056000000000001,384.282015625,13.896Q384.604015625,13.084,385.346015625,12.636Q386.088015625,12.187999999999999,386.998015625,12.187999999999999ZM392.85001562499997,11.082Q392.486015625,11.082,392.234015625,10.83Q391.98201562500003,10.578,391.98201562500003,10.214Q391.98201562500003,9.85,392.234015625,9.597999999999999Q392.486015625,9.346,392.85001562499997,9.346Q393.200015625,9.346,393.445015625,9.597999999999999Q393.690015625,9.85,393.690015625,10.214Q393.690015625,10.578,393.445015625,10.83Q393.200015625,11.082,392.85001562499997,11.082ZM393.466015625,12.328L393.466015625,20L392.192015625,20L392.192015625,12.328L393.466015625,12.328ZM399.37401562499997,12.187999999999999Q400.774015625,12.187999999999999,401.642015625,13.035Q402.510015625,13.882,402.510015625,15.478L402.510015625,20L401.250015625,20L401.250015625,15.66Q401.250015625,14.512,400.676015625,13.902999999999999Q400.10201562500004,13.294,399.108015625,13.294Q398.10001562499997,13.294,397.505015625,13.924Q396.910015625,14.554,396.910015625,15.758L396.910015625,20L395.636015625,20L395.636015625,12.328L396.910015625,12.328L396.910015625,13.42Q397.288015625,12.832,397.939015625,12.51Q398.590015625,12.187999999999999,399.37401562499997,12.187999999999999ZM407.760015625,12.202Q408.75401562499997,12.202,409.503015625,12.636Q410.252015625,13.07,410.616015625,13.728L410.616015625,12.328L411.904015625,12.328L411.904015625,20.168Q411.904015625,21.218,411.45601562499996,22.037Q411.008015625,22.856,410.175015625,23.318Q409.342015625,23.78,408.236015625,23.78Q406.724015625,23.78,405.716015625,23.066Q404.70801562500003,22.352,404.526015625,21.119999999999997L405.786015625,21.119999999999997Q405.996015625,21.82,406.654015625,22.247Q407.312015625,22.674,408.236015625,22.674Q409.286015625,22.674,409.95101562499997,22.016Q410.616015625,21.358,410.616015625,20.168L410.616015625,18.558Q410.238015625,19.23,409.49601562500004,19.678Q408.75401562499997,20.125999999999998,407.760015625,20.125999999999998Q406.738015625,20.125999999999998,405.90501562500003,19.622Q405.072015625,19.118000000000002,404.596015625,18.208Q404.120015625,17.298000000000002,404.120015625,16.136Q404.120015625,14.96,404.596015625,14.071Q405.072015625,13.182,405.90501562500003,12.692Q406.738015625,12.202,407.760015625,12.202ZM410.616015625,16.15Q410.616015625,15.282,410.266015625,14.638Q409.916015625,13.994,409.321015625,13.651Q408.726015625,13.308,408.012015625,13.308Q407.298015625,13.308,406.710015625,13.644Q406.122015625,13.98,405.772015625,14.624Q405.422015625,15.268,405.422015625,16.136Q405.422015625,17.018,405.772015625,17.669Q406.122015625,18.32,406.710015625,18.663Q407.298015625,19.006,408.012015625,19.006Q408.726015625,19.006,409.321015625,18.663Q409.916015625,18.32,410.266015625,17.669Q410.616015625,17.018,410.616015625,16.15Z" fill="#FFFFFF" fill-opacity="0.5"/></g><g><g clip-path="url(#master_svg2_654_2535)"><g><path d="M23.607694375,18.7217884765625L23.593624375,18.7217884765625C22.663944375,18.6819484765625,21.773314374999998,18.5640784765625,21.018627375,18.3814584765625C20.846752275,18.3399484765625,20.740502275,18.158998476562502,20.779564825,17.976378476562502C20.818627275,17.793758476562502,20.990502375,17.6792084765625,21.160814375,17.7223784765625C21.878004375,17.8966884765625,22.728004375,18.0079184765625,23.620194375,18.0461084765625C23.795194375,18.0544084765625,23.932694375,18.2104584765625,23.924874375,18.3980584765625C23.918624375,18.5790184765625,23.778004375000002,18.7217884765625,23.607694375,18.7217884765625ZM25.256314375,18.9210184765625C25.087564375,18.9210184765625,24.948134375000002,18.781558476562502,24.938764374999998,18.6022684765625C24.927824375,18.416328476562498,25.062294375,18.255288476562498,25.238854375,18.2453284765625C27.929484375,18.0776584765625,29.362474374999998,17.2923784765625,29.362474374999998,16.7910184765625C29.362474374999998,16.6050784765625,29.504564375,16.4523584765625,29.681124375,16.4523584765625C29.856124375,16.4523584765625,29.999884375,16.6034184765625,29.999884375,16.7910184765625C29.999884375,18.0593784765625,27.627914375,18.7749284765625,25.277914375,18.9210184765625L25.256314375,18.9210184765625ZM24.257694375,17.3504984765625C23.562374375,17.3504984765625,22.879564375,17.3073384765625,22.228004375,17.2210084765625C22.053004375,17.1977684765625,21.929564374999998,17.0284284765625,21.951444375,16.8441484765625C21.973314375,16.6582184765625,22.131124375,16.5253984765625,22.306124375,16.5503084765625C23.703004375,16.7345784765625,25.281124375,16.7129984765625,26.607694375,16.4921984765625C26.779564375,16.4672984765625,26.943624375,16.5901484765625,26.971754375,16.7744284765625C26.999874375,16.9586984765625,26.879564375,17.1313584765625,26.706124375,17.1612384765625C25.942064375,17.2857584765625,25.118624375,17.3504984765625,24.257694375,17.3504984765625ZM26.764594375,17.1612584765625C26.628654375,17.1612584765625,26.808344375,16.9570584765625,26.764594375,16.8126184765625C26.738814375,16.7229784765625,26.666274375,16.5985784765625,26.764594375,16.4999984765625C26.862914375,16.4014184765625,26.764594375,16.4999984765625,27.970194375,16.1651484765625C28.996754375000002,15.8248184765625,29.360814375,15.4263784765625,29.360814375,15.1889784765625C29.360814375,14.6128984765625,27.443624375,13.7446404765625,24.438944375,13.694835476562499C24.263944375,13.6915154765625,24.123314375,13.5371204765625,24.126444375,13.3511834765625C24.129564375,13.1652454765625,24.276444375,13.0042107765625,24.449874375,13.0191521455625C27.207694375,13.0656364765625,29.998314375,13.8259884765625,29.998314375,15.1906384765625C29.998314375,15.6521584765625,29.679564374999998,16.3095784765625,28.160814375,16.8126084765625C28.129564375,16.8209084765625,26.795844375,17.1612584765625,26.764594375,17.1612584765625Z" fill="#E5FD52" fill-opacity="0.6000000238418579"/><path d="M26.569924375,16.6504084765625Q24.480784375,16.9884884765625,22.284994375,16.6988084765625Q22.220034375,16.6895684765625,22.167334375,16.7334384765625Q22.109874375,16.7812784765625,22.100394375,16.8618384765625Q22.078084375,17.0497784765625,22.247704375,17.0723084765625Q23.215234375,17.2004984765625,24.257694375,17.2004984765625Q25.474764375,17.2004984765625,26.577424375,17.0298084765625Q26.584354375,17.0036284765625,26.594554375,16.9729784765625Q26.626944375,16.8756384765625,26.620434375000002,16.8540784765625Q26.617174375,16.842748476562498,26.606514375,16.8127084765625Q26.575434375,16.7251484765625,26.569924375,16.6504084765625ZM26.728754375,17.3095384765625Q25.556064375,17.5004984765625,24.257694375,17.5004984765625Q23.195454375,17.5004984765625,22.208304375,17.3697084765625Q22.013714375,17.3438684765625,21.894874375,17.1815984765625Q21.779094375,17.0234984765625,21.802484375,16.8264684765625Q21.825914375,16.6273184765625,21.975394375,16.5028784765625Q22.130454375,16.3737984765625,22.327254375,16.4017984765625Q24.508464375,16.6895384765625,26.583064375,16.3442384765625Q26.656794375,16.3335384765625,26.724964375,16.3439484765625Q26.800864375,16.3000884765625,26.920854375,16.2744784765625Q27.330414375,16.1870884765625,27.926464375000002,16.0216084765625Q28.606394375,15.7957984765625,28.957954375,15.5203784765625Q29.210814374999998,15.3222984765625,29.210814374999998,15.1889784765625Q29.210814374999998,14.8122984765625,27.977664375,14.3863384765625Q26.509454375,13.8791754765625,24.436094375,13.8448084765625Q24.240194375,13.8410914765625,24.104944375,13.6924354765625Q23.973114375,13.5475434765625,23.976464375,13.3486624765625Q23.979824375,13.1488134765625,24.115754375,13.0063062765625Q24.260434375,12.8546244765625,24.457114375,12.8692534765625Q26.711614375,12.9078114765625,28.308024375,13.4690734765625Q30.148314374999998,14.1160784765625,30.148314374999998,15.1906384765625Q30.148314374999998,15.8650684765625,29.446874375,16.3663184765625Q29.551104375,16.3023584765625,29.681124375,16.3023584765625Q29.877304375,16.3023584765625,30.015184375,16.4483384765625Q30.149884375,16.5909684765625,30.149884375,16.7910184765625Q30.149884375,17.7847584765625,28.575994375,18.4160884765625Q27.247824375,18.9488484765625,25.287224375,19.0707284765625L25.282574375,19.0710184765625L25.256314375,19.0710184765625Q25.067424375,19.0710184765625,24.931564375,18.9347984765625Q24.798994375,18.8018784765625,24.788964375,18.6100984765625Q24.777304375,18.411908476562502,24.903584375,18.2613984765625Q25.033384375,18.1066884765625,25.230404375,18.095568476562498Q27.070864375,17.9808684765625,28.253574375,17.5041784765625Q29.212474375,17.117698476562502,29.212474375,16.7910184765625Q29.212474375,16.5919384765625,29.346164375,16.4493584765625Q29.373164375,16.4205684765625,29.402444375,16.3974084765625Q28.945294375,16.7107884765625,28.207974375,16.9549984765625L28.203694375,16.9564184765625L28.199324375,16.9575784765625Q26.867814375000002,17.3112584765625,26.764594375,17.3112584765625Q26.745794375,17.3112584765625,26.728754375,17.3095384765625ZM27.116634375,16.9302584765625Q27.455604375,16.8447084765625,28.117914374999998,16.6687984765625Q29.848314375,16.0945684765625,29.848314375,15.1906384765625Q29.848314375,14.3286084765625,28.208524375,13.7520914765625Q26.656304375,13.2063634765625,24.447354375,13.1691304765625L24.442164375,13.1690434765625L24.437004375,13.1685984765625Q24.380204374999998,13.1637054765625,24.332834375,13.2133704765625Q24.277804375,13.2710564765625,24.276414375,13.3537044765625Q24.273264375,13.5416654765625,24.441784375,13.5448624765625Q26.562234375,13.5800094765625,28.075614375,14.1027784765625Q29.510814375000002,14.5985384765625,29.510814375000002,15.1889784765625Q29.510814375000002,15.8124184765625,28.017394375000002,16.3075284765625L28.013884375,16.3086884765625L28.010334375,16.3096784765625Q27.447854375,16.4659084765625,27.046274375,16.5542584765625Q27.103064375,16.6405884765625,27.120034375,16.7517984765625Q27.134234375,16.8448584765625,27.116634375,16.9302584765625ZM25.273244375,18.7710184765625Q27.182544375,18.6517984765625,28.464304375,18.1376484765625Q29.849884375000002,17.581858476562502,29.849884375000002,16.7910184765625Q29.849884375000002,16.6023584765625,29.681124375,16.6023584765625Q29.512474375,16.6023584765625,29.512474375,16.7910184765625Q29.512474375,17.3202384765625,28.365724375,17.7824284765625Q27.137974375,18.2772684765625,25.247304375,18.3950884765625Q25.179824375,18.3988984765625,25.133414375,18.4542184765625Q25.083794375,18.5133584765625,25.088564375,18.5944284765625Q25.097794375,18.7710184765625,25.256314375,18.7710184765625L25.273244375,18.7710184765625ZM24.074754375,18.404298476562502L24.074784375,18.4032384765625Q24.082734375,18.2039884765625,23.954234375,18.0563584765625Q23.822964375,17.9055584765625,23.626604375,17.8962384765625Q22.272904375,17.8383084765625,21.197666375,17.5769684765625Q21.005356375,17.5282284765625,20.837796475,17.6398784765625Q20.674938075,17.7483984765625,20.632883375,17.9449984765625Q20.591333375,18.1392484765625,20.690760875,18.3079884765625Q20.792854775,18.4812484765625,20.983348375,18.527248476562498Q22.152524375,18.8101684765625,23.587204375,18.8716484765625L23.590414375,18.8717884765625L23.607694375,18.8717884765625Q23.798514375,18.8717884765625,23.934864375,18.732848476562502Q24.067724375,18.5974584765625,24.074754375,18.404298476562502ZM23.613774375,18.1959684765625Q23.782834375,18.2039884765625,23.775004375,18.3918184765625L23.774964375,18.3928784765625Q23.768784375,18.5717884765625,23.607694375,18.5717884765625L23.596844375,18.5717884765625Q22.193314375,18.5113784765625,21.053905375,18.235668476562502Q20.886160375,18.1951584765625,20.926246375,18.0077584765625Q20.942789375,17.9304184765625,21.004145375,17.8895384765625Q21.060819375,17.8517784765625,21.123963375,17.8677784765625Q22.230664375,18.1367784765625,23.613774375,18.1959684765625Z" fill-rule="evenodd" fill="#E5FD52" fill-opacity="0.6000000238418579"/></g><g><path d="M17.9920445625,20.564532910156252C17.7779815625,20.564532910156252,17.5842315625,20.50153291015625,17.4232945625,20.35203291015625C17.2904818625,20.22923291015625,17.2764193625,20.01673291015625,17.3904818625,19.87563291015625C17.5061065625,19.73453291015625,17.7061065625,19.71953291015625,17.8389195625,19.840732910156248C18.0139195625,20.00173291015625,18.770166562500002,19.80093291015625,20.060796562500002,18.58732291015625C20.8139165625,17.883412910156252,21.6045465625,16.97199291015625,22.3482965625,15.95265291015625C24.498296562500002,12.99923291015625,25.2592365625,10.55548691015625,24.8389165625,10.17033091015625C24.7061065625,10.04913991015625,24.6904865625,9.83497891015625,24.8045465625,9.69386591015625C24.9201665625,9.55275271015625,25.1201665625,9.53615111015625,25.2529865625,9.65734261015625C26.229546562499998,10.55050691015625,24.7842365625,13.70812291015625,22.8498565625,16.36603291015625C22.0811065625,17.42023291015625,21.2623565625,18.36320291015625,20.4795465625,19.09367291015625C19.8389165625,19.69963291015625,18.7811065625,20.564532910156252,17.9920445625,20.564532910156252Z" fill="#E5FD52" fill-opacity="0.6000000238418579"/><path d="M20.5818865625,19.203342910156252L20.5826165625,19.20264291015625Q21.785836562500002,18.079732910156253,22.9711365625,16.45430291015625Q24.5484465625,14.28701291015625,25.2827665625,12.40441291015625Q26.1231465625,10.24991891015625,25.3540865625,9.54653951015625Q25.2062865625,9.41166591015625,25.0100665625,9.42774091015625Q24.8156265625,9.44367091015625,24.6878865625,9.59957221015625Q24.5651365625,9.75142991015625,24.5795465625,9.95040091015625Q24.5939865625,10.14989491015625,24.7375765625,10.28092091015625Q25.0143365625,10.53452891015625,24.4179765625,12.04325291015625Q23.7161665625,13.81876291015625,22.2271165625,15.86424291015625Q21.0960765625,17.41438291015625,19.9580365625,18.478042910156248Q19.0997765625,19.285072910156252,18.4656765625,19.59473291015625Q18.0262695625,19.80933291015625,17.9400265625,19.72993291015625Q17.7923935625,19.59523291015625,17.5967685625,19.61023291015625Q17.4017105625,19.62523291015625,17.2738256625,19.78133291015625Q17.1511955625,19.93303291015625,17.1646555625,20.13083291015625Q17.1781815625,20.32963291015625,17.3212368625,20.46203291015625Q17.5932855625,20.71453291015625,17.9920445625,20.71453291015625Q18.9839665625,20.71453291015625,20.5818865625,19.203342910156252ZM22.7285765625,16.27777291015625Q21.5599165625,17.88038291015625,20.3772065625,18.98400291015625L20.3764665625,18.984692910156248Q18.8647865625,20.41453291015625,17.9920445625,20.41453291015625Q17.7110775625,20.41453291015625,17.5253515625,20.24213291015625Q17.3890181625,20.11603291015625,17.5071385625,19.969932910156253Q17.5525075625,19.91453291015625,17.6197425625,19.90933291015625Q17.6860135625,19.90423291015625,17.7378125625,19.95153291015625Q17.9738535625,20.16873291015625,18.5973165625,19.86433291015625Q19.2722065625,19.53473291015625,20.1635465625,18.69660291015625Q21.321676562500002,17.61415291015625,22.4694665625,16.04107291015625Q23.981136562499998,13.96450291015625,24.696976562499998,12.153532910156251Q25.3692265625,10.45281991015625,24.9402565625,10.05973991015625Q24.8029565625,9.93444891015625,24.9211965625,9.78815991015625Q24.9669965625,9.73227491015625,25.0345665625,9.72673891015625Q25.1005765625,9.72133091015625,25.1518765625,9.76814591015625Q25.7689265625,10.332497910156249,25.003276562499998,12.29540291015625Q24.2830565625,14.14184291015625,22.7285765625,16.27777291015625Z" fill-rule="evenodd" fill="#E5FD52" fill-opacity="0.6000000238418579"/></g><g><path d="M16.895342,19.550172216796874C16.609404,19.550172216796874,16.423467,19.438972216796877,16.314092,19.337672216796875C15.335967,18.442872216796875,16.782842,15.286912216796875,18.71722,12.632322216796876C20.46097,10.241702216796876,22.3594,8.556643216796875,23.440649999999998,8.442091986796875C23.79534,8.403908416796876,24.01878,8.533400616796875,24.145339999999997,8.647951216796875C24.6094,9.071291216796874,24.5719,9.984372216796874,24.02815,11.362302216796875C23.96097,11.534962216796874,23.77503,11.616312216796874,23.61253,11.543262216796876C23.45159,11.471872216796875,23.37347,11.272662216796874,23.44222,11.101662216796875C23.94847,9.818362216796874,23.85315,9.272170216796875,23.731279999999998,9.160939216796875C23.68597,9.117775216796876,23.6094,9.104494216796875,23.50472,9.114455216796875C22.74065,9.195803216796875,21.02503,10.572072216796876,19.22034,13.047362216796875C17.06878,15.997462216796876,16.307842,18.441172216796875,16.728154,18.826372216796877C16.773467,18.867872216796876,16.850029,18.882772216796873,16.954717,18.871172216796875C17.71878,18.789872216796873,19.43597,17.411912216796875,21.235970000000002,14.938282216796875C21.71409,14.284182216796875,22.1469,13.618462216796875,22.52503,12.961032216796875C22.61722,12.800002216796875,22.81253,12.751862216796875,22.96253,12.848142216796875C23.11253,12.946092216796874,23.16097,13.153612216796876,23.06878,13.312992216796875C22.67815,13.991992216796875,22.231279999999998,14.679302216796875,21.73909,15.353322216796876C20.00003,17.742292216796876,18.10315,19.427372216796876,17.02034,19.543572216796875C16.976592,19.548572216796877,16.935967,19.550172216796874,16.895342,19.550172216796874Z" fill="#E5FD52" fill-opacity="0.6000000238418579"/><path d="M17.03101,19.642972216796878L17.03165,19.642872216796874Q17.87529,19.551972216796877,19.200029999999998,18.375492216796875Q20.509050000000002,17.212962216796875,21.81985,15.412292216796875Q22.557850000000002,14.401632216796875,23.15534,13.363062216796875Q23.24408,13.209642216796876,23.20393,13.035112216796875Q23.16365,12.860042216796874,23.01655,12.763992216796876Q22.86705,12.668022216796874,22.69744,12.711182216796875Q22.52818,12.754252216796875,22.43834,12.911182216796874Q21.86433,13.909182216796875,21.15511,14.879442216796875Q19.88436,16.625772216796875,18.64058,17.726972216796874Q17.531109999999998,18.709272216796876,16.943684,18.771772216796876Q16.830368,18.784372216796875,16.795715,18.752672216796874Q16.673876,18.640972216796875,16.736721,18.189552216796876Q16.807337,17.682282216796875,17.10278,16.935512216796873Q17.80747,15.154312216796875,19.30115,13.106282216796874Q20.57543,11.358482216796876,21.819029999999998,10.258072216796876Q22.92847,9.276372216796876,23.51419,9.214005216796876Q23.63039,9.202948216796875,23.66387,9.234802216796876Q23.75137,9.314664216796874,23.7226,9.684012216796875Q23.680419999999998,10.225322216796876,23.349429999999998,11.064362216796875Q23.28326,11.228962216796875,23.348,11.395962216796875Q23.413249999999998,11.564262216796875,23.57153,11.634472216796874Q23.733710000000002,11.707372216796875,23.89605,11.636592216796874Q24.05584,11.566922216796875,24.12117,11.399012216796875Q24.96511,9.260414216796875,24.21245,8.573810216796875Q23.90103,8.291952216796876,23.43012,8.342647616796874Q22.58753,8.431913246796874,21.261,9.608882216796875Q19.95095,10.771232216796875,18.636400000000002,12.573432216796874Q17.06235,14.733542216796874,16.330315,16.608552216796873Q15.501967,18.730272216796877,16.246152,19.411072216796875Q16.504415,19.650172216796875,16.895342,19.650172216796875Q16.967319,19.650172216796875,17.03101,19.642972216796878ZM19.06722,18.225952216796877Q17.78983,19.360372216796875,17.00967,19.444172216796876L17.00903,19.444172216796876Q16.956336,19.450172216796876,16.895342,19.450172216796876Q16.582787,19.450172216796876,16.382031,19.264272216796876Q15.738143,18.675272216796877,16.51662,16.681292216796876Q17.23923,14.830392216796875,18.79804,12.691222216796875Q20.09982,10.906522216796875,21.39374,9.758482216796875Q22.67233,8.624048216796876,23.45119,8.541534216796874Q23.8333,8.500400216796875,24.07824,8.722093216796875Q24.728450000000002,9.315250216796874,23.93513,11.325602216796876Q23.899630000000002,11.416842216796875,23.816110000000002,11.453262216796876Q23.73494,11.488652216796876,23.65353,11.452052216796876Q23.44611,11.360052216796875,23.535,11.138962216796875Q23.87749,10.270792216796876,23.92199,9.699542216796875Q23.95836,9.232797216796875,23.79869,9.087077216796875Q23.702280000000002,8.995205216796876,23.49524,9.014905216796874Q22.84377,9.084259216796875,21.6865,10.108292216796874Q20.42663,11.223102216796875,19.13954,12.988452216796876Q17.63087,15.057042216796875,16.916808,16.861932216796873Q16.256834,18.530072216796874,16.660594,18.900072216796875Q16.762217,18.993172216796875,16.96575,18.970572216796874Q17.61584,18.901372216796876,18.77315,17.876722216796875Q20.03326,16.761052216796877,21.31682,14.997122216796875Q22.03225,14.018382216796875,22.611710000000002,13.010892216796876Q22.65964,12.927182216796876,22.746760000000002,12.905002216796875Q22.83214,12.883282216796875,22.90851,12.932302216796874Q23.10082,13.057882216796875,22.982219999999998,13.262922216796875Q22.38992,14.292472216796874,21.65833,15.294352216796874Q20.36007,17.077772216796873,19.06722,18.225952216796877Z" fill-rule="evenodd" fill="#E5FD52" fill-opacity="0.6000000238418579"/></g><g><path d="M17.697684375,20.484886523437503C17.624244375,20.484886523437503,17.550804375,20.4582865234375,17.491434375,20.4034865234375L16.352369375,19.369286523437502C16.217993975,19.2480865234375,16.202368975,19.0355865234375,16.316431475,18.8927865234375C16.432056375,18.7499865234375,16.632056375,18.733386523437503,16.764868375,18.8545865234375L17.903934375,19.8888865234375C18.038304375,20.0100865234375,18.053934375,20.2225865234375,17.939864375,20.3652865234375C17.875804375,20.4433865234375,17.786744375,20.484886523437503,17.697684375,20.484886523437503ZM25.132054375,10.301466523437501C25.058614374999998,10.301466523437501,24.985184375,10.274906523437501,24.925804375,10.2201165234375L23.789864375,9.1858395234375C23.655494375,9.0646485234375,23.641434375,8.8504875234375,23.755494374999998,8.7093745234375C23.871114375,8.5666013234375,24.071114375,8.5516599234375,24.203934375,8.6728513234375L25.339864374999998,9.7071265234375C25.474244374999998,9.8283165234375,25.488304375,10.0424765234375,25.374244375,10.183596523437501C25.310184375,10.2616165234375,25.221114375,10.301466523437501,25.132054375,10.301466523437501ZM29.674234374999997,19.0155865234375C29.499234375,19.0155865234375,29.355534374999998,18.864586523437502,29.355534374999998,18.6769865234375L29.352334374999998,15.2918965234375C29.352334374999998,15.1059565234375,29.494534375,14.9532265234375,29.671134375,14.9532265234375C29.846134375,14.9532265234375,29.989834375,15.104296523437501,29.989834375,15.2918965234375L29.993034375,18.6769865234375C29.993034375,18.8628865234375,29.850834374999998,19.0155865234375,29.674234374999997,19.0155865234375Z" fill="#E5FD52" fill-opacity="0.6000000238418579"/></g><g><path d="M24.2606234375,21.564561572265625C22.4528134375,21.564561572265625,19.8037134375,21.264071572265625,18.7490234375,20.761051572265625C18.5880859375,20.684681572265625,18.5176815375,20.483791572265623,18.5895565375,20.314451572265625C18.6614315375,20.143461572265625,18.8491154375,20.065421572265624,19.0100524375,20.145111572265627C19.9850534375,20.609951572265626,22.5371934375,20.888871572265625,24.2606234375,20.888871572265625C27.3762534375,20.888871572265625,29.3637234375,20.008990572265624,29.3637234375,19.403033572265624C29.3637234375,19.217095572265624,29.5059234375,19.064361572265625,29.682523437500002,19.064361572265625C29.8575234375,19.064361572265625,30.001223437500002,19.215435572265626,30.001223437500002,19.403033572265624C29.999723437500002,20.822471572265624,27.1121934375,21.564561572265625,24.2606234375,21.564561572265625Z" fill="#E5FD52" fill-opacity="0.6000000238418579"/><path d="M28.2475334375,21.158251572265627Q30.1500234375,20.518001572265625,30.1512234375,19.403198572265627L30.1512234375,19.403033572265624Q30.1512234375,19.202987572265624,30.0165234375,19.060359022265626Q29.8787234375,18.914361572265626,29.682523437500002,18.914361572265626Q29.4854234375,18.914361572265626,29.3475234375,19.061351162265623Q29.2137234375,19.203953572265625,29.2137234375,19.403033572265624Q29.2137234375,19.557254572265624,28.9174234375,19.768733572265624Q28.5653234375,20.019940572265625,27.9330734375,20.230901572265626Q26.4105534375,20.738871572265626,24.2606334375,20.738871572265626Q22.871813437500002,20.738871572265626,21.3741734375,20.542581572265625Q19.7441834375,20.328941572265624,19.0766124375,20.010686572265627Q18.8958584375,19.921187572265627,18.7098904375,19.996829572265625Q18.5295122375,20.070201572265624,18.4514794375,20.255841572265624Q18.3746314375,20.436901572265626,18.4406294375,20.622801572265626Q18.5080622375,20.812741572265626,18.6844504375,20.896431572265627Q19.4543014375,21.263611572265624,21.2022934375,21.500081572265625Q22.7876834375,21.714561572265623,24.2606234375,21.714561572265623Q26.5944534375,21.714561572265623,28.2475334375,21.158251572265627ZM29.8512234375,19.402868572265625L29.8512234375,19.403033572265624Q29.850123437500002,20.302401572265627,28.1518434375,20.873921572265626Q26.5453334375,21.414561572265626,24.2606234375,21.414561572265626Q22.8078834375,21.414561572265626,21.2425134375,21.202791572265625Q19.5410564375,20.972611572265624,18.8135974375,20.625661572265624Q18.7491294375,20.595071572265624,18.7233414375,20.522431572265624Q18.6964194375,20.446601572265624,18.7276334375,20.373061572265627Q18.7578424375,20.301191572265626,18.8229224375,20.274721572265626Q18.8837794375,20.249971572265625,18.9434934375,20.279531572265626Q19.6580234375,20.620211572265625,21.3351834375,20.840041572265626Q22.8522334375,21.038871572265624,24.2606334375,21.038871572265624Q26.4592934375,21.038871572265624,28.0280234375,20.515471572265625Q28.7030234375,20.290281572265624,29.091623437499997,20.012933572265624Q29.513723437499998,19.711727572265627,29.513723437499998,19.403033572265624Q29.513723437499998,19.322632572265626,29.5663234375,19.266590572265624Q29.615323437500003,19.214361572265624,29.682523437500002,19.214361572265624Q29.7493234375,19.214361572265624,29.7984234375,19.266337572265623Q29.8512234375,19.322199572265625,29.8512234375,19.402868572265625Z" fill-rule="evenodd" fill="#E5FD52" fill-opacity="0.6000000238418579"/></g></g></g><g><path d="M0,15C0,23.2843,6.71573,30,15,30L218.302,30L231.297,15L218.302,0L15,0C6.71573,0,0,6.71573,0,15Z" fill="url(#master_svg3_654_3499)" fill-opacity="1"/><path d="M0,15C0,23.2843,6.71573,30,15,30L218.302,30L231.297,15L218.302,0L15,0C6.71573,0,0,6.71573,0,15ZM15,29L217.846,29L229.973,15L217.846,1L15,1Q9.20101,1,5.10051,5.10051Q1,9.20101,1,15Q1,20.799,5.10051,24.8995Q9.20101,29,15,29Z" fill-rule="evenodd" fill="url(#master_svg4_654_3669)" fill-opacity="1"/></g></g></svg>