<svg width="542" height="542" viewBox="0 0 542 542" fill="none" xmlns="http://www.w3.org/2000/svg">
<rect width="542" height="542" rx="271" fill="black"/>
<path d="M346.573 137H412.445V406.474H346.573V339.105L366 274L346.573 204.368V137Z" fill="#DFFE02"/>
<path fill-rule="evenodd" clip-rule="evenodd" d="M262.737 406.474C337.15 406.474 397.474 346.15 397.474 271.737C397.474 197.324 337.15 137 262.737 137C188.324 137 128 197.324 128 271.737C128 346.15 188.324 406.474 262.737 406.474ZM271.719 355.574C318.021 355.574 355.555 318.039 355.555 271.738C355.555 225.436 318.021 187.901 271.719 187.901C225.418 187.901 187.883 225.436 187.883 271.738C187.883 318.039 225.418 355.574 271.719 355.574Z" fill="#DFFE02"/>
<circle cx="271.719" cy="271.737" r="62.8772" fill="#DFFE02"/>
</svg>
